<svg xmlns="http://www.w3.org/2000/svg" viewBox="0 0 444.76 489.48"><defs><style>.cls-1,.cls-3{fill:#fff;}.cls-1,.cls-2{fill-rule:evenodd;}.cls-2,.cls-4,.cls-5{fill:#009fe3;}.cls-5{stroke:#009fe3;stroke-miterlimit:10;stroke-width:1.12px;}</style></defs><title>logo</title><g id="Capa_2" data-name="Capa 2"><g id="Capa_1-2" data-name="Capa 1"><path class="cls-1" d="M429.58,332.76l.24-.72c-.14-.31-.75-.59-1-1h-.72c-.08.52,0,.45-.24.72a2.84,2.84,0,0,1-1.92-.24l-.24-.48h-.48v-.24c-.67-.25-.91.22-1.44-.24h-.49c.11-.21.43-.37.49-.49v-1.44c.1-.25.32-.06.48-.72a3.61,3.61,0,0,1,1,.72h1c-.21-.26,0,0-.24-.24a1.52,1.52,0,0,0-1.2-.72c-.08-.4-.17-.8-.24-1.2l.72-.24v-.72l1,.24c.12,1.08.59,1.37,1.68,1.44v-.48c-.67-.19-.69-.42-1.2-.72a2.26,2.26,0,0,1,.48-1.2h.24c.17-.6-.44-.5-.48-.72-.15-.74.68-.48.48-1.2l-.72-.48v-.72h1v.48c.47.15.21,0,.48.24a3.36,3.36,0,0,0,1.2-.24,4.17,4.17,0,0,0-.72-1.68,3,3,0,0,1,1.2-.25c-.12-.21-.68-.59-.72-.72-.18-.6.41-.48.48-.72l-.24-1.44.48-.24.24-1-1.68-.72-.24-1.92c1.39-.37,1.52-1.54,1.44-3.37-.67-.19-.69-.42-1.2-.72v-.72l2.16.24c-.55-1.91-2.68-2.12-3.6-3.6l-1.44.24v.24h-1l-.24.48a2.55,2.55,0,0,0-1.69,0v.24h-1c-.29.13-.17.35-.72.48.09-1.17.52-1.38.72-2.4l-1-.24A7,7,0,0,0,419,300.8c-.23-.17-.8-.19-1-.48v-1c-.13-.23-.55-.41-.72-.72a4.89,4.89,0,0,1,2.16-.72v-.48a4.27,4.27,0,0,1-2.4-.48v-1a5.09,5.09,0,0,1-1.2-.48c0-1.66.25-1.29,1.44-1.68a2.17,2.17,0,0,0-1.68-1.93c-.19-1-.47-1.67-1.45-1.92.12-.22.41-.34.48-.48.26-.5-.17-.49.25-1s.14-.32.72-.48c.21.73.43.81,1.2,1a8.62,8.62,0,0,0-1-1.92l-1.45-.24c.23-.84.76-1.57,1-2.4-1.11-.28-1.3-1-2.41-1.21v-1.68h.72c-.23-.43-.33-.38-.48-1a2.62,2.62,0,0,1-1.92-2.16h-.24c-.15-.48.34-.68.48-1-.13-.09-1.41-1.37-1.44-1.44l.24-.72c-.22-.35-.87-.22-1.2-.48s-.53-1.28-1-1.69c.2-.2.52-.27.72-.48s0,0,.24-.24c-.7-.33-.91-.8-1.44-1.2h-.48c-.22-.17-.25-.53-.48-.72.23-.21.73-.27,1-.48.47-.84-.66-.5,0-1.44v-1.2c-.26-.48-1.59-.47-2.16-.72s-1-.73-1.45-1c.18-1.1.75-1.47,1-2.65l-2.16-.72h-1c-.73-.3-.41-.66-1.68-.72l-.24-.72c.81.16,2,.86,3.12.48.49-.16.82-.89,1.68-.72,1.35.26,2,1.17,3.37,1.44.42-.5.74-.41,1-1.2l-1.68-.24c-.28-.66-.38-1.08-1-1.44V259h1.2v-.48l-2.65-.48c.09.48.16,1,.25,1.44.57.15.52.25,1,.48v.48c-.43-.16-1.58,0-2.17-.24-.36-.17-.09-.49-1-.72v-.72c-1.7-.22-1.25-.57-2.16-1.2h-.48l-.24-.48-1.2-.24-.24-.49-1.68.25a9.51,9.51,0,0,1,.72-2.41c-.33-.19-.46-.55-.72-.72h-.48v-.24L395,253c-.44-.15-1.18-.53-1.68-.72l-.24-.48.72-.24c.6-.4,2.53.83,3.61,1a2.06,2.06,0,0,0-.72-1.2,5.07,5.07,0,0,0-3.61-.48,2.86,2.86,0,0,1,0-1.2,1.39,1.39,0,0,0,1-.48c.27-.21,0,0,.24-.24a3.75,3.75,0,0,1-1-.48h-.24v-.24c.84.11.73.3,1.44.48v-1c-.93-.17-2.17-.3-2.64-1h-.48c.23.43.34.37.48,1-.76,0-1.76.1-2.16-.24l-.72-.24V246l-2.16-.49v-.24c1.67-.58,2.94.2,4.32.24,1,0,1.37-.82,2.64-.48.68.19,2,.94,2.89.24.26-.21,0,0,.24-.24a9,9,0,0,1-1.2-.24c-.09-.16-.17-.32-.25-.48l-1.68-.24-1-1.92-1.44-.24-.24-.48h-.72l-.24-.48-1-.24-.48-.72c-.84-.53-1.79-.15-2.88-.48v-.24h-1v-.24h-1v-.24h-1.44v-.24H382c-.42-.27-.69-1-1.2-1.2h-.72l-.48-.49h-1.93v-.24l-1.44-.47v-.25c-.42-.15-3.18-.2-3.6-.24l-.24-.72c-.71-.12-1.55-.21-1.92-.72s0,0,0-.72H370v-.24l2.88.24,1,.72h2.4v.24h1c.55.2,1,1,1.92.72V235h.72c.13-.06.26-.36.48-.48-.08-.52,0-.45-.24-.72,0-.6,0-.9.24-1.2.7-.6,4.14-.54,5.28-.72l-.24-.72c-2.22-.45-4.53-1.07-6.48-1.68-.95-.3-1.85-.07-2.65-.48-.16-.09-.5-.64-.72-.73h-1.68c-.44-.23-.33-1.2-.72-1.44l-2.4-.24v-.24H368.8v-.24h-.73l-.71-.48h-1.45l-.72-.48a7,7,0,0,1-2.4.24v-.24c-1.29-.34-2.78.59-4.08,0l-.25-.48H358c-.07,0-.91-.7-1-.72h-1.2v-.24l-2.16-.24v-.24h-1.44V223l-1.44-.24c-.09-.16-.16-.32-.24-.48h-1.93l-.24-.72a7.81,7.81,0,0,1-2.16-.72h-2.4c-1.74-.49-4.92-1.78-6.25-.48h-.24v.24l2.89.24v.48c-1.33.08-2.08.36-3.13-.24l-.24-.48c-.58-.25-1.16.23-1.44.24v-.24c-.27-.21,0,0-.24-.24h.48v-.48h-2.4l-.72-.48-2.89-.24-.48-.48h-.72v-.25c-.65-.2-1.37.27-1.68.25l-1-.73-2.16-.48v.48a20.19,20.19,0,0,1,1.92,1v.24h-1v1.2c-.86-.24-.6-.56-1-.72-1.29-.6-1.72.49-2.65-1a4.56,4.56,0,0,0-1.68.24v.24l2.16.48c.06,0,.9.69,1,.72h.72c.25.14.4.54.72.72-.42,1.22-1.26.4-1.68,1.68l-1.45.24-.48-.48c-.81-.33-1.4-.15-1.92-.72h-.24v2.88L315,224.4a17.61,17.61,0,0,0-2.16,2.4h-.49c.32.28.81.26,1.45.24v.24a6.74,6.74,0,0,1-3.85.25l-.48-.25v.25l-1.2.24-.48.47h-.72c-.09,0-.86.68-1,.73l-2.64.72v.24h-1l-.72.48a16.26,16.26,0,0,0-1.68-.24v.48a8.11,8.11,0,0,0-5,1.68l-.48.72h-.48a8.27,8.27,0,0,0-.73.72v.48l-1.92,1.68v.48l-3.12,2.89v.48l-2.16,1.92-.72,1h-.49l-2.16,2.4c-2.22,1.62-5.08,4.12-6.24,6.73v.72l-.48.48-.24,1.68q-2.65,5.78-5.29,11.54l-.48.24-.24,1c-.13.24-.59.52-.72.72-.6.9-.79,1.81-1.68,2.4-.15.47,0,.21-.24.48.27.26,0,.1.48.24l.24-.72a17.42,17.42,0,0,0,3.84-1.68c.21.27,0,0,.24.24-.08,1.56-.5,1.43-.24,2.88H271c-.18,1.24-.91,1.36-1.2,2.41-.58.15-.53.25-1,.48l.24,1.2,2.88,1c-.21,1.54-.83.83-1.92,1.44l-.48.72h-.72c-.45.27-.68.91-1.2,1.2.16.57.07.44.48.72-.12,1.8-.71.86-1.2,1.68v1l-1.44,1.2.23,1-1.44.24c.21.7.64.91,1.21,1.2a1.06,1.06,0,0,1-.25.72c.08.24.16.48.25.72l-1,.48v1.44h-.24v1.44l-.48.25v.71l-1.2.73c-.46.89.46,1-.48,1.68v1c.47.8,1.81-.3,1.2,1.68a2.82,2.82,0,0,1,1.68,0c.25.11.09.32.72.48v.48a5,5,0,0,1-1.92,0v.72c.88.08,1.32.41,2.17,0,.29-.14.06-.3.71-.48a1,1,0,0,1,.25-.48c.11-.4-.3-.89-.25-1h.49c.1-.1.67-.63.72-.72v-1.44c.2-.39.92-.55,1.2-1s-.18-.81-.24-1.69c.47-.15.21,0,.48-.23.4-.58.08-.21,0-1a6.09,6.09,0,0,0,1.44-.48l.24-.24h-.48c-.41-.39-.53-.55-.24-1,0-1.42.4-1.83,1.68-1.92-.27-.56-.63-.55-.24-1.2l.48-.24-.24-1.68,1.44-1.2v-1.45l.48-.24-.24-.72h.24c.35-.52.62-.65,1.45-.72v1.44h.23a3.48,3.48,0,0,1,.49-1l-.24-.72a5.71,5.71,0,0,1-1.45-.48c0-.56,0-.68.24-1s.2-.17.73-.24v.72a1.43,1.43,0,0,0,1-.48H277a15.8,15.8,0,0,0-1.45,5.77h-.48c0,2.59-1,3.83-1,6.24-.57.17-.43.07-.72.48h-.24c-.45.22.48.24.48.24-.21,1.33-.92,1.3-1,2.89h-.48V297l-.48.48.24,1.44a2.44,2.44,0,0,0-1.68,2.4,8.53,8.53,0,0,0,2.4-.48,37.13,37.13,0,0,1-.48,5.77,30.87,30.87,0,0,0,.24,7.69v3.84l.24,6.25h-.24v1.2H272a23.52,23.52,0,0,0,1.44,6l.24,3.36h.24l.24,2.4.48.72v1.2l.48.73c.09.64.17,1.28.25,1.92l.48.48.24,1.44h.24c.41.85.52,1.57,1,2.4.05.11.68.87.72,1v.72c0,.06.7.92.72,1l.48,2.16h.24l.48,1.44h.24l.24,1,.48.24.24,1,.48.24.24,1,.48.24v.48l1.92,1.69c.17.23.22.68.49,1l.72.48c.21.3.26.9.48,1.2l.72.48v.48l1,.72V363l1,.72v.48l.72.48v.48l.48.24.24,1,.72.48,1.68,1.93h.48l.73,1h.48c.59.42,1.38,1.53,1.92,1.92h.48l.48.72h.48l.48.72h.48l.48.72h.48c.3.21.66.76,1,1h.48l1.2,1.69h.48a5.4,5.4,0,0,1,1.93,1.68,1.19,1.19,0,0,0,1-.72,3.23,3.23,0,0,1,2.4,1l.24.72c.33.25,1,.13,1.2.48v1.2c.2.4.5.07.72,1a12.38,12.38,0,0,1-3.84-1.2h-1l-.48-1h-1c-1.12-.42-1.82-1.14-3.37-1.2v-.24h.48c-.39-1.23-1.24-.64-2.16-1.2-.08-.16-.16-.33-.24-.48-.35-.23-.85-.26-1.2-.49l-.24-.48h-.72c-1.19-.55-2.66-1.64-4.09-1.92v-1l-1.68-1h-.72c-.39-.28,0-.75-.24-1.2s-1.11-.47-1.44-.72a7.08,7.08,0,0,1-1-1.44c-1.64.06-2.52.49-4.33.48v.48c1.35.22,1.77-.1,2.89.48-.17.57-.07.43-.48.72.1.89.17,1,1,1.2.4,1.44,2,1.72,3.12,2.4h.48c.56.43.34,1.27.72,1.92.62,1.07,2.11,1,3.13,1.69.07.16.16.32.24.48l.72.24v.72l2.64,1c.42,1.45.45.43,1.44,1,.25.14.39.55.72.72l-.24.72c-.47.15-.21,0-.48.24h-1c-.39-.22-.54-1.19-1-1.44l-1.44-.24-.48-.48h-.48l-.24-.48-1-.24-.24-.48-2.4-.72-.48-.72-1-.24-.48-1-2.4-.73c-.15-.47,0-.2-.24-.48-.06-2.1-1.32-1.71-2.17-2.88h-1.68c.17-.57.07-.43.48-.72-.52-.61-1.38-.86-1.92-1.44-.23-.27-.17-.2-.24-.72-1-.13-1.08-.5-1.92-.72a2.66,2.66,0,0,0,.24,1.68,2.1,2.1,0,0,0,1.92,1.44l-.24,1c.7.19.78.25,1,1,1.56.4,1,1.23,1.92,1.92h.48c.08.16.17.32.24.49h.73c.08.15.16.32.23.48h.49c.2.11.54.62.72.72h.72s.53.4.72.48v.48c.57.16.38.27.72.48h.48l.24.48,2.64.24c.52.29.3.71,1.2,1l.24.72,2.41.48.24,1.44h3.12l.24,1.68c.36.63.88.2,1.2,1.21a5.81,5.81,0,0,1-3.84-.49l-.72-1-3.61-.24v-.24l-.72-.24v-.48c-.5-.53-1.41-.28-1.92-.24v1.2a11.15,11.15,0,0,1,4.09.72l.48.48h.72l.24.49c.35.22.84.25,1.2.48l.24.48c.88.46,2.24-.17,2.64,0l1.2,1.68h1c.22.09.56.63.72.72l1.45.24c2.64,1.05,5.69,1.55,8.65,2.4,1.5.43,7.08,2.72,8.64,1.2.27-.21,0,0,.24-.24a2.11,2.11,0,0,1-.72-.48h-.48v-.24h3.13v2.65a2.88,2.88,0,0,1,1,.48c-.19,1.19-.79,1-1,2.16l5.52.72v.24l1.44.24v.24a.4.4,0,0,0,.48-.24h3.37v-.24H334v.24l.72-.24.48.48c.71.23,1.55-.22,1.92-.24.7-.05,1.86.52,2.88.24v-.24h1.21v-.24h3.12l1-.72h1.44v-.24c2.13-.58,4.14.43,6,.48v-.48l2.16.24v-.24a7,7,0,0,1,1-.24v.24l2.16.24.24.48a4,4,0,0,0,1.2-.48h1.69c-.55-1-1.62-1.54-1.92-2.65.72-.21,1.24-1,1.92-.47.66.2.52,0,.72.72-.57.16-.44.07-.72.48h-.48c.27.25,0,.09.48.24.19.11,0,.3.48.24l.72-.48h1.92V396h1.2v-.24c2.29-.63,5.41.56,7-.72h.24a4,4,0,0,1-.48-1.21l1.44-.48v-.24l1.68-.24v-.24c.76-.35,1.3-.62,1.93-1l1.44-.48c.08-.16.15-.32.24-.48h.48c.07,0,.91-.7,1-.72h1.2v-.24h.72l.24-.48c.63-.31,1.63-.06,2.16-.48.47-.15.21,0,.48-.24a4,4,0,0,0-1.2-.48v-.48a8.73,8.73,0,0,1,1.68-.48c.08-.24.16-.48.25-.72l1.44-.24.24-.49,1.68-.24v.24a3.67,3.67,0,0,0,1.44-.24v-1l1-.24c.86.14,1.66.47,2.4-.24.27-.21,0,0,.24-.24-.27-.21,0,0-.24-.24h-1.2c-.18.06-.1.52-.48.48v-.24c-.6,0-.9,0-1.2-.24-.43-.48-.12-.76-.72-1.2.19-1.23.46-.63,1.2-1.2l.24-.72c.21-.24.73-.27,1-.48h.24c-.26-.88-.76-.81-1.2-1.44-.27-.21,0,0-.24-.24a1.72,1.72,0,0,0,.72-.72h.48a8.25,8.25,0,0,0-.24-1.69c.64,0,1.12,0,1.44.24h.48a2.63,2.63,0,0,0-.24,1c.72,0,1.55-.09,1.92.24l.73.24c-.49.43-1.11.17-1.69.48-.15.08-.23.35-.48.48.14.57.44.59.48.72.35,1-1,.76.24,1.68l-.24.48-1.2.24V382a4.19,4.19,0,0,0,2.41-1c.4-.65.32-.28-.25-.72,0-.6,0-.91.25-1.2.58-.57,2.27-.74,3.36-.72l-.48-.72c.06-.22.69-.14.48-.72-.07-.18-.53-.21-.72-1,1-.15,1.92-.32,2.88-.48v1.93a2.85,2.85,0,0,1,1.2-.24v-.48h-.48v-.24l.48-.25-.24-1c.47.15.21,0,.48.24a3,3,0,0,0,1.2-.24v-1l1.44-.24v-.24c.52,0,.5.57,1.21,0,.46-.53-.05-.86.24-1.44s.81-.19,1-1.44c1.88-.56,1.28-2.36,3.6-2.88v-1.21h1a1.38,1.38,0,0,1,1.2-1.2,3,3,0,0,1,1.69-.48c-.2-.7-.38-.59-.48-1.44l1.92-.48-.24-1.2c.52-.08.45,0,.72-.24,1.37,0,2.57-.27,2.88-1.2l-.24-1,.48-.24a2.55,2.55,0,0,0,.72-1.69l-2.4.25v-1h-1.2l.24-.72.72-.24.24.48c.55.19.64-.24,1-.24v.24h1.44a3.79,3.79,0,0,1-1-2.4l1.2.24v.24l.72-.24a2.29,2.29,0,0,0-.48-1.2v-.24c1.4.12,3.44,1.49,4.57.24h.24c.12-.25-1.19-.94-1.44-1.68.52-.08.45,0,.72-.24a3.08,3.08,0,0,0,1-.48,3.5,3.5,0,0,0-1.68-1.92v-1.45H426c.12-.61.76-1.1.48-1.92l-.48-.24c-.39-1.12.64-1.66,1.2-1.92v-1c-1-.29-.84-.86-1.44-1.2-.77-.44-2-.42-2.65-1-.08,0-.42,0-.24-.24h.24c.29-.41.63-.4,1-.73a14.12,14.12,0,0,1,2.65.25v1.2a4,4,0,0,0,1.92,0V340h-.72v-.24c-.23-.27-.17-.2-.24-.72l.72-.25V339c.89-.11,1-.19,1.2-1-.57-.16-.44-.07-.72-.48h-.24c-.16-.31.88-.79,1-1v-1h.24v-.48l.72-.48.24-1.2h-.72a8,8,0,0,0-.48-.72M377.21,232.57a3.19,3.19,0,0,1,1,.48c-.21.27,0,0-.25.24s-.19.17-.71.24Zm-4.33-1.2,2.4.24c-.07.52,0,.45-.24.72-.5.35-1.33-.19-1.92-.48-.21-.27,0,0-.24-.24Zm-108.6,65.11c-.26-.21,0,0-.24-.24a1,1,0,0,0,.48-.48c.69.07.86.1,1.2.48s.18.2.25.72c-.94,0-1.31.06-1.69-.48m5.05-7.93c-.6,0-.91,0-1.2-.24h-.48l.48-.72h1.2c.21.27,0,0,.24.24l-.24.72m6-10.09c-.67-.2-.53,0-.73-.72.47-.15.21,0,.48-.24h.25Zm.23-8.65a8.25,8.25,0,0,1-1.68-.24v-.48l1-.24a5.21,5.21,0,0,1,.23-1.2,3.21,3.21,0,0,1,1.21.24,5.13,5.13,0,0,1-.73,1.92m14.66,104H290v-.24c-.27-.21,0,0-.24-.24h.48Zm5.77,4.81v-.48h1v.48Zm3.36,1.2c-.25-.31-.49-.37-.72-.72h1.44c.21.27,0,0,.24.24a3.32,3.32,0,0,1-1,.48M408.2,303.69a1.06,1.06,0,0,0,.48.48v.24h-1.2l-.24-.72Zm-10.58-45.17a4.88,4.88,0,0,1,2.89.24c.15.47,0,.21.24.48s.2.17.72.24l-.24.72c-1.57-.12-2.23-.91-3.61-1.2Zm-4.8-4.81a2.61,2.61,0,0,1,2.64.48c.47.15.21,0,.48.24-1.35.51-2.05.06-3.12-.24Zm-6-12.49a8.56,8.56,0,0,1,2.88,1,2.39,2.39,0,0,1,.24,1h-1v-.72l-1.92-1h-.24Zm-1.69.24a1.06,1.06,0,0,0,.48.48v1h-.24c-.43-.87-.76-.78-1.2-1.44Zm-15.85-8.41c-.47.34-.25.37-.72,0Zm-37.72,5.77,2.4-.24c-.33,1-1.13.78-2.4.72Zm3.12,1.2-.24.72c-.6,0-.91,0-1.2-.24s-.1,0-.24-.48c.27-.21,0,0,.24-.24Zm-7.93-2.88v.48h-.48v-.48Zm1.68,1a2.66,2.66,0,0,1,1.68.24c.47.15.21,0,.49.24-1.15.4-2.64.16-3.37,1a5,5,0,0,1-2.64-.48v-.48c1.28-.45,2.91.32,3.84-.48m-5.76-1h2.16c.21.26,0,0,.24.24l-.24.48-1.2.48v-.24c-.64,0-1.13,0-1.44-.24s0,0-.24-.24a2.27,2.27,0,0,0,.72-.48m-4.33-2.65a4.69,4.69,0,0,1,2.88.72,3.38,3.38,0,0,1,1,.48c-.71,1.14-1.78.67-2.65,1.45a7.47,7.47,0,0,1-4.08-1.69c-.47-.15-.21,0-.48-.24.91-.29,2.46.06,3.36-.72M277,276.3c.47-.15.21,0,.48-.24.47.15.2,0,.48.24-.27.21,0,0-.24.24H277Zm0,1.44h.24v.72c-.24-.27-.17-.2-.24-.72m.24,21.86v.72c-.47.15-.21,0-.48.24h-.24v-1Zm-.48-6.24v-.48h1c.21.26,0,0,.24.23-.15.47,0,.21-.24.49v.24a3.19,3.19,0,0,1-1-.48m2.4,18.25h-.48c.07.48.48,1,.24,1.69l-.48.24a1.16,1.16,0,0,0,.48,1.2l-.24.72-1.92.24c0-1.63.47-2.08.72-3.36l-.72-.24L277,309l.72-.24v-1.2h1.68l-.24,1.44h-.24c-.11.63.42.47.48.72s-.24,1.33-.24,1.92m1.44-10.81v1.45l-.48.24.24,1.68h-.24c-.45.79-.47.28-.24,1.2a1.94,1.94,0,0,0-.72.48c-.89,0-1.28,0-1.68-.48h-.24c-.15-.31.15-.1.24-.24s.48-.47.48-.48c.15-.49-.56-1.37-.24-2.16.16-.09.32-.16.48-.24V300.8h.48a2.34,2.34,0,0,1,.24-1.2h.24c.55-1.36-.39-1.37,1-2.16a1.14,1.14,0,0,0-.72-1c.21-.75.54-.88.72-1.68.6,0,.9,0,1.2.24.67.19.7.42,1.2.72v.48l-1,.24a7.17,7.17,0,0,0,0,1.68h1.2v1l-1.68.48a2.42,2.42,0,0,1-.24,1.2Zm.24-9.61c.27-.23.2-.17.72-.24v.48c-.47-.15-.21,0-.48-.24Zm3.12-1c1.24-.1,2.58-.38,3.13-1.2a3.2,3.2,0,0,1,1.2.24c-.23,1.52-1.18,1.45-2.16,2.16a24.59,24.59,0,0,0-1.93,2.89l-1.68-.24-.24-.72c.47-.15.21,0,.48-.25,1-.3,1.26-1.48,1.2-2.88m.24-3.6v-.48h1c.2.27,0,0,.24.24v.24Zm3.61-1.92V284l1.44-.49a3.44,3.44,0,0,0,1,.73V285a3.38,3.38,0,0,1-2.4-.24m1.68,13.93.48.24v.24s-1.13-.12-.72-.24c.06-.33.24.1.24-.24m-6,25.47a2.32,2.32,0,0,1-1.68-.48l-.72-.24v-2.16c.78-.22.91-.54,1.2-1.21,2.33.17,1.17,1.62,3.13,1.93-.42.38-1.69.43-1.93,1-.08.19.19.61,0,1.2m1.21-6.73v-.24l1,.24v1.2c-1.67,0-3.08-.29-3.85-1.2-.47-.15-.21,0-.48-.24.27-.21,0,0,.24-.24l1.44.24v.24Zm0-7.21c.13.46-.15.34-.24.48v.24H284l.49-.72Zm-.24-14.65.72-.24V295c.35-.12.73.35,1.2.48l-.24.72c-.81,0-1.07-.06-1.44-.48-.27-.21,0,0-.24-.24m-2.17,22.82c.21.27,0,0,.24.24v.24l-1.2.24v-.72Zm2.89,13.7h1c-.15.47,0,.21-.24.48v.24l-.48-.24c-.21-.27,0,0-.24-.24Zm.48-15.62c.47.15.2,0,.48.24-.47-.15-.21,0-.48-.24m-.73-13.69c.09-.24.17-.48.25-.73.46-.14.2,0,.48-.24a8.89,8.89,0,0,1,1.68.24v.49l-2.41.24m-4.08,23.54a6.18,6.18,0,0,0,2.4-1,7.84,7.84,0,0,1,1.45.72,4.32,4.32,0,0,1-.73,1.68,2,2,0,0,1-1.44-.48V327c-.57-.31-1,0-1.44-.48-.27-.21,0,0-.24-.24m.72,6.73a11.05,11.05,0,0,0,.48-2.64h1a2.35,2.35,0,0,0,1,1.2c-.26,1-1.16,1.42-2.4,1.44m1.2,4.8v-1h.48c-.06-1.57-.68-1.68-1-2.88h.48v-.48h1.44c-.07,1-.28.93-.48,1.68h.73v.24a9,9,0,0,1,.72,2.64l-2.41-.24m1.44,7.21a3,3,0,0,1,1-1.68c0-.93.05-1-.72-1.2v-.48c2.61-.52,1.75.38,3.12,1.44-.66,1.41,0,.54.24,2.16a21.6,21.6,0,0,1-3.61-.24m4.09-19c1.46-.06,1.94,0,2.16,1.2h1v.24a3.64,3.64,0,0,1-3.12.48l-.24-.48a3,3,0,0,0-1.2-.48v-.48a2.18,2.18,0,0,0,1.44-.48m-1-2.16a2.13,2.13,0,0,0,.24-1.2c.27-.21,0,0,.24-.24.64,0,1.12,0,1.44.24a1.65,1.65,0,0,1,1.2,1.44c-.88,0-2.4.18-2.88-.24Zm.48,9.13.24-.72c1.23.29,1.49,1.12,2.4,1.68-.15.47,0,.21-.24.48s-.52.28-.72.48a2.34,2.34,0,0,1-1.44-.48l.24-1.2-.48-.24m1.2-3.61h1c-.42.36-.53.38-1,0m1.2,28.11s-.67-.64-.72-.72c.47.15.21,0,.48.24h.24Zm1.68.49-1.44-1.21c-.23-.37.07-.69-.24-1h-.48a6.12,6.12,0,0,1-.72-.72v-.48l-.72-.48v-.72c-.08-.17-.67-.6-.72-.72-.35-.89.56-.18,0-1-.2-.66,0-.53-.72-.72a7,7,0,0,1-.24-1.68l-.72-.24a8.64,8.64,0,0,1-1-2.89c1.43.13,3.44.23,4.33,1,.53.44.11,1.13,1,1.69a6.54,6.54,0,0,1-1.92,1.44,1.16,1.16,0,0,0,1,.72c.15,1,.49.84.72,1.68.47.15.21,0,.48.24.46.53,0,.87.24,1.44l.48.24a2.1,2.1,0,0,1,.48,1.68l.72.24c.22.76.52.69.72,1.45Zm-3.12-16.58c0-.07.4-.31.48-.48.64,0,1.12,0,1.44.24l.72.24c-.57,1-1.06,1.2.24,1.92l-.48,1.44a5.7,5.7,0,0,1-2.64-1.44l-.24-.24.72-.48-.24-1.2m3.6,13.45c-.24-.64-.17-1-.72-1.44v-.24c.57,0,.68,0,1-.24,1.25.36,1.21,1.54,2.17,2.16l-.24.72c-1.09-.13-1.36-.58-2.17-1m-.48-13.93v-.48h.48v.48Zm.72,8.65a3.73,3.73,0,0,1,1.45.24v.48c-.53-.08-.46,0-.73-.24h-1v-.24c.27-.21,0,0,.24-.24m1.69,7.92c-.48-.29.05-.65.24-1l.48.24s-.66.91-.72.72m3.36,7c-.58-.15-.53-.25-1-.48-.21-.27,0,0-.24-.24v-.24l1.2.24Zm.48-4.08c-1.85.09-2.42-.45-2.16-1.68a2.67,2.67,0,0,1,1.68.24l.72.24a3.2,3.2,0,0,1-.24,1.2m6,10.33a7.89,7.89,0,0,1-2.89-2.64H301v-.24a6.08,6.08,0,0,1,2.41,1c.4.28.31.14.48.72h.48l.24.72a1,1,0,0,0-.48.48m-2.65-5.53.24-.72,1.44.24a2,2,0,0,0,.49.72v.24l-2.17-.48m6.49,7.93c-1.06,0-1.45-.16-1.92-.72h-.24v-.24l2.16.48Zm.24,1v-.48l.72-.24v.24a2.26,2.26,0,0,1,1.2.48v.24l-1.92-.24m-.72,12a4.67,4.67,0,0,1,2.4.72v.24h2.17v.24c-.27.21,0,0-.25.24a21.23,21.23,0,0,1-4.32-.72Zm-6.73-1.21c.27-.25,0-.09.48-.24.21.27,0,0,.24.24-.21.27,0,0-.24.24s-.19.18-.72.24c.15-.46,0-.2.24-.48m6.49,5.29c-1.42-.55-5.74-.76-6.49-1.68L301,388l6.73,1.2a9.81,9.81,0,0,0,1.92,1c-.49.44-1.78.24-2.4,0M315,392.1a3.55,3.55,0,0,1-2.88-1h-.25c.5-.47,1.62-.29,2.17-.72h1.92c.21.27,0,0,.24.24-.26.88-.76.81-1.2,1.44m7.69-6.49c-.46-.29-1.26-1.37-1.69-1.68-1-.71-2.2-1.16-2.88-2.16a38.16,38.16,0,0,1,4.81,3.12c.82.55,1.63.62,2.16,1.45l-2.4-.73m80.48-40.12h.72c-.46.34-.24.37-.72,0m.24-29.55v.48h.48c.18.62.27.6.48,1.2h.24l-.24.72h.72c-.22.81-.79,1.11-1.44,1.44.24,1,.91,1.39,1.2,2.17v1.2l.49.48v1.2h-.25c.09,1,.16,1.92.25,2.88l-.49.48c-.29,1.1.59,1.2.73,2.17h-.49c.21.66.05.52.73.72v1.2a3.32,3.32,0,0,0-1,.72h-.24a4,4,0,0,1,.48,1.2c-.44.36-.26.52-1,.72l.24,1-.72.24v.48h-.24v.24h.24l.24.48-.48.24V339h-.48c0,1.59-.21,1.89-1.2,2.4a1.78,1.78,0,0,0,.72.72c-.09.72,0,.64-.48,1,.21.69.36.52.72,1a1.39,1.39,0,0,0-1,.48,12.31,12.31,0,0,0-1.2,3.6h.24l.24,1.45-1.2.72-.72,2.4-2.89,1c.17.48.32,1,.49,1.44a2.09,2.09,0,0,0-1.21.72c-.23.27-.17.2-.24.72-2,.46-1.86.52-3.6-.48l-.24.72c.66.21.53.05.72.72h-.72c-.21.27,0,0-.24.24a1,1,0,0,0,.48.49c-.31.47-.73.4-1,.72l-.24,1.2-1.68,1.2.24,1.2-1,.72c-.92,1.36-1.87,3.91-3.61,4.33-.19.67-.42.69-.72,1.2h-.48l.24,1.2-2.4.48c-.19,1.29-.58.89-1.44,1.44-.2.12-.49.61-.72.72h-.72l-.49.72-1,.24-.24.48-3.84,1.68-.24.48-3.84,1.69c-.08.16-.17.32-.24.48h-3.85c-3.51,0-8.35.47-11.05-.48l-.72,1h-1.2v.24H351l-.24.48h-.48s-.47.47-.49.48l-3.36.72v.24h-.72v.24H345l-.72.48h-.72V382h-.72v.24H341.4V382h-3.12v-.24h-1.92l-.72-.48-.72.24v-.24h-.72l-.48-.48H333l-.72-.48h-1v-.24h-1v-.24h-1.68v.24l-1.44-.24a3,3,0,0,1,.48-1c-.81-.27-1.45.18-2.4-.24-.24-.11-.53-.6-.72-.72h-.48l-.24-.48h-.48v-.24L321,377c-.29-.18-.3-.73-.48-1a4.23,4.23,0,0,0-1.44-1v-.48c-.81-.19-1.1-.54-1.92-.72v-.72a7,7,0,0,1-3.85-.24c.09-.39.54-.95.49-1.2h-.24v-1l-1.93-1-.24-.72-.48-.24v-.48c-.26-.33-.9-.41-1.2-.72s0,0-.24-.25h.48v-.48l-2.4-.72a4.33,4.33,0,0,1-.24-1.68c-.66-.29-1.55-.65-2.16-1v-.72l-1.44-.24c.15.47,0,.21.24.48a3.19,3.19,0,0,1-.48,1l-2.65-1c.15-.47,0-.21.24-.48a4.15,4.15,0,0,1,2.65-.48c0-.57,0-.68.24-1-.18-1.25-.75-.82-1.45-1.44-.43-.48,0-.41-.24-1l-.48-.24v-.24c.16-.08.32-.17.48-.24l-.24-1.21-1.92-.72c-.27-.18-.38-.52-.72-.72a2.88,2.88,0,0,1,.48-1,6.55,6.55,0,0,1-2.16-1.92V352c-.22-.3-.71-.42-1-.72h-.24c.42-.35,1-.14,1.44-.48.08,0,.42,0,.24-.24h-.24a3.43,3.43,0,0,0-2.4-1c.21-.69.35-.52.72-1h.24c.06-.14-.5-.43-.72-1.21h-.48c.13-.61.57-.69.24-1s-.29-.16-.48-.48a2.46,2.46,0,0,0,1-1l.24-.24a6,6,0,0,1-1.68-2.4c-.25-.78.24-1.33-.24-1.92-.26-.8-.48-.5-1-1-.26-.21,0,0-.24-.25h.49c-.08-1.08-.34-1-.73-1.68a1,1,0,0,0,.48-.48h.49v-.48c-1.39.09-4.21,1.22-4.81.72-.67-.19-.69-.42-1.2-.72v-.48l1.92-1a21.73,21.73,0,0,1,3.36-.24,2.6,2.6,0,0,0-.48-1.44h-.24c.11-.45.76-.59.48-1.44s-1.42-1.05-.24-2.16c-.1-.83,0-.76-.72-1v-.48h.48a3.36,3.36,0,0,0-.72-2.16h.48v-1.44l-.48-.24c0-.11.21-1.92.24-2.16a1.11,1.11,0,0,1-.48-.48h-3.36v-.72l-.72-.24v-.48c2.09.06,2.18,1,4.32,1,0-.44-.27-.77-.24-1h.24l.24-1.45-.48-.48a3.54,3.54,0,0,1,.24-1.92,6.57,6.57,0,0,0,1.93-1c-.07-1.31-.56-1.26-1.45-1.68v-.48c-.47-.15-.2,0-.48-.24h-.24c.27-.94,2.06-2,2.89-2.41v-.48l-1.69-1.2c.16-1.07.74-1.85,0-2.4.23-.78.53-.7,1-1.2.26-.21,0,0,.24-.24-.27-.21,0,0-.24-.24-1.67.21-2.85.94-4.81,1a4,4,0,0,0-.24-1.44l-.48-.24v.24a1.46,1.46,0,0,1-1.2-.24c-.24-.27-.17-.2-.24-.72a3.47,3.47,0,0,0,2.16-.48c.32-.4.13-1.43.48-1.69H290l.48-.48c.87-.32,1.36,0,1.92-.48.08,0,.43.05.24-.24h-.24a3.83,3.83,0,0,0-1.68-1v-.48a7,7,0,0,0,1.68.24c-.15-.47,0-.21-.24-.48-.54-.45-1.6,0-2.16-.48-.24-.27-.17-.2-.24-.72l2.4-.48v-.48a2.65,2.65,0,0,1-1.92-.48l-.72-.24a2,2,0,0,1,.48-1.2h.24l-.24-1.45.48-.23c.58-1.49-.49-1.53,1-2.41a1.16,1.16,0,0,0-.72-1,1.68,1.68,0,0,1,1.2-1.44c.17-1.76,1-1.62.24-3.12a4.07,4.07,0,0,1,1.2-.48v-.72c-1.14-.35-1.39-1-3.12-1,.21-.26,0,0,.24-.24.48-.71,1.16-.76,2.4-.72l.24-.72a2.25,2.25,0,0,0,1.45-2.16h.72V277.5h.48v-.72a3.86,3.86,0,0,1,1.2-.48l.24-.72c-.65-.29-2.15-.46-2.64-1h-.24c.08-.24.15-.48.24-.73-.26-.33-.64-.22-1-.72a7.9,7.9,0,0,0,1.2-.24l.24-.48h1.2a2.59,2.59,0,0,0,1.92-1c.27-.21,0,0,.24-.24-.13-.06-.72-.48-.72-.48h-1l-.24-.48a2.11,2.11,0,0,0-1.68-.72v-.48l3.12-.48-.24-1.2a1.23,1.23,0,0,0,.24-1h-.24l-.24-1,1.44-.73c.39-.46.47-1.09,1-1.44l1.92-1,.24-1.44.72-.24v-1H302v-.48a4.72,4.72,0,0,0,1.93-1.2h.24c.11-.36-.36-.74-.48-1.2a9.24,9.24,0,0,1,1.68-.72v-.48l-2.89-.49v.24l-1,.25-.24.71-1,.73-.24.72-.72.24c-.16.3.14.16.24.24,0,1.12-.12.66-.48,1.2V260l-1.92,1v1.2a2.34,2.34,0,0,0-1.2.48c-.51.37-.5,1.06-1,1.44l-.72.25c.08.23.15.47.24.71-.11.21-1.07.95-1.21,1.21v1l-.48.24v.48c-.25.37-.7.52-1,1h-.48a18.29,18.29,0,0,1-.24,2.16l-.48.24a4.12,4.12,0,0,0-1.2,2.16l-1,.24-.72,2.17c-.16.14-.83.22-1,.48v1.2a8,8,0,0,1-1.2,1.2c-.08.24-.17.48-.24.72.18.48.87.19,1.2,1.2a3.69,3.69,0,0,0-1.44.48c-.1.25-.11,1.17-.25,1.44-.28.58-.93.48-1.2,1.45l-1,.24c-.21-.27,0,0-.24-.24,0-2.61,1-2.84,1.93-4.33.59-1-.4-1.12.72-1.92a3.19,3.19,0,0,0-.48-1c-1.59.21-1.54,1.26-3.13,1.44.15-.47,0-.21.24-.48v-.48a6.6,6.6,0,0,0-2.16,1.44h-.24c.86.69,1.55-.25,2.4.48l.48.24v.72a2.06,2.06,0,0,0-1.2.72c-.23.27-.17.2-.24.72-.87.21-1.05.59-1.68,1,.2.66.05.53.72.72V284h-.48c0,.81,0,.86-.48,1.2a2.62,2.62,0,0,0,.24,1,17,17,0,0,0,3.12-.72l.24.72c-1.43.19-2.09.93-3.6,1.2.24.76.58.65,1,1.2.93,0,1,.05,1.2-.72h.72a1.72,1.72,0,0,0,.72.72l-.24.48h-2.88c0,.57,0,.68.24,1a2.51,2.51,0,0,1-.24,1h-.48v.72a6.84,6.84,0,0,1-2.64,1v-.73c.92-.37,1.65-.64,1.92-1.68a5.59,5.59,0,0,0-1.92.48,14.07,14.07,0,0,1,.48-4.32l.48-.48c.06-.28-.39-.42-.24-1,.42-1.62.73-3.69,1.2-5.29l.48-3.6.48-.24v-.48c.19-.28.52-.37.72-.72l-.72-.24v-1.21c-.25.28-.1,0-.24.48h-.24v-.72l.72-.24.72-4.08a9.63,9.63,0,0,0,1.92-.24l-.24-.72-1.44-.24a2.51,2.51,0,0,1,.24-1,9.63,9.63,0,0,0,1.92-.48c.66-.21.53-.05.72-.72h.48c-.15-.47,0-.21-.24-.49v-.24c-.33-.14-1.05.34-1.2.48h-1.2l.72-1.2a8.43,8.43,0,0,1,2.65-.24c.2-.26,0,0,.24-.24v-1c-1,.13-1.1.54-1.69.72l-1.68-.24v-1.2c1.66-.12,2.42-.73,4.33-.72l.24-.72a1.41,1.41,0,0,0,1-.48c1-.29,1.28-1.33,1.44-2.4h.48c.33-.19.25-.65.48-1l1-.71v-1c.32-.49,1.56-.42,2.16-1.44h.48a4,4,0,0,1,1.93-2.64h1c.34-.23.47-1.5.72-1.92l1.92-1.44h.48v-.48c2.29-.68,3.9-3.48,6.25-4.09.47-.32.38-.06,1.2,0a2.53,2.53,0,0,1-1,1v.24c1.17-.15,1.43-.7,2.4-1v-1c-.56,0-.68,0-1-.24h-.24c.48-.46.87-.17,1.44-.48l.48-.72c1.07-.49,2.79.39,3.61-.24a4.56,4.56,0,0,1,1.68.24c-.31,1-1.17.95-1.68,1.68h-.49v.48a12.73,12.73,0,0,0-2.88,1.68v.72c1.57-.2,2.68-1.2,3.85-1.68h1c.07-.16.16-.32.24-.48h.48l.24-.48,1-.24v-.24l2.64-.24a7.49,7.49,0,0,1,2.88-.24l.72.48a3.69,3.69,0,0,0,2.41-.48,3.54,3.54,0,0,1,1.92.24l.24.72c.66.16,1.15.55,1.68.72l2.4.24a2.55,2.55,0,0,0,.25-1l-2.65-.48c-.23-.83-.61-.9-.72-1.92l1-.24v-.24c1.24-.47,2,0,3.37.24.15.47,0,.21.24.48a9.58,9.58,0,0,0,3.36,1.44c.43-.5.74-.41,1-1.2a14,14,0,0,1,4.09,1h1v.24l-2.41.72.24.72,2.17.72.48.48h1.68v.24h2.88c2.71.73,6.43.24,9.13,1l8.89.49c1.77.55,2.12,1.69,4.81,1.68V248l-.72.24v.72c2,.09,1.15.56,2.16,1.2.5.32,1,0,1.68.24v.24h.48c.17.1.23.35.48.48v.48c.52.08.45,0,.72.24h2.4V252c-.19.09-.7.08-1,.24s-.27.56-.48.72c.39.35,1.08.35,1.44.72s.18.2.24.72c1,.33.2.16.73.72s1.28.34,1.92.24v-.48h-.48v-.48a3.38,3.38,0,0,1,2.4.48c.24.08.48.17.72.24a1.86,1.86,0,0,1-1,.73l.24,1h-1v.72c.31.12.51.08,1,.24V258c.79.24,1.64-.18,2.16.24,1.15.35.26.21.72,1l.72.48.24,1.44h-1v.48l1.44.24c.91-.1,2.14-.42,2.89.24.47.15.21,0,.48.24-.7.3-1.43.39-1.68,1.2a12.34,12.34,0,0,1,3.12.48c-.12.85-.3.73-.48,1.45.47.15.21,0,.48.24h2.88a15.41,15.41,0,0,1,2.4,4.08c.41.57.09.2,0,1a3.12,3.12,0,0,1-2.64-1.2,7.39,7.39,0,0,0-2.4.24c.65,1.06.85.65,1.92,1.2l.24.48h.72l.48.48h.72a12.46,12.46,0,0,1,1.21,1.2v1c.4.74,1.42.59,1.91,1s0,.88.25,1.44c.45,1.09,1.56,1.32,1.92,2.88H400c.14.27-.38.4-.48.48.34,1.16,1.07.82,1.44,1.44l.24,1.44,1.2,1c.86,1.55-.49,2.79,1.2,3.84-.19.67-.48.54-.72,1a4.18,4.18,0,0,1,.24,1.2c.47.15.21,0,.48.24.45.5,0,.6.24,1.2h.24a5.16,5.16,0,0,1,.72,2.17c.82.25.81.79,1.45,1.2v1h.48V296h-.48a4,4,0,0,1,.24,2.16h-.24a2.26,2.26,0,0,0-.25,1l1,.24a4,4,0,0,0,0,2.16,3.13,3.13,0,0,1-2.89-1.44c-1.09.07-.87.25-1.44.72a2.86,2.86,0,0,0,0,1.2,3.37,3.37,0,0,0-1.44.49c-.27.21,0,0-.24.24l1.2.24c.15.46,0,.2.24.48.32.12-.1.26.24.24v-.24a5.76,5.76,0,0,1,1.92-.24c-.15.47,0,.2-.24.48.2.7.25.78,1,1v.48c.6-.17.49-.39.71-.48,1.27-.53,3,.48,3.37,1s1,4,1,5.52c-.67.19-.69.43-1.2.73.25.8.72.71,1.44,1l-.24,3.12c-.56,0-.68,0-1-.24a3.13,3.13,0,0,1-1.92-1.92c-.33-.47-.07-.38,0-1.2l-1.45-.24v-.24c-.08,0-1.13.23-1.68.24a3.5,3.5,0,0,1-1,.72c.39.56.92.34,1.2.72s-.1.75.24,1l1.93.24.24.48h.48l.24.48.72.24-.24.48a2.53,2.53,0,0,1-1.68-.48v-.24Zm-115.56-7.69c.21-.73.43-.81,1.2-1,.46-.3,1,.08,1.68.24.15.47,0,.21.24.48-.18,1.36-.92,1.22-1.68,1.92l-1.2-.24c.17-.64.32-.55.48-1.2l-.72-.24m.48,7.93a3.2,3.2,0,0,0,1.2-.24c.15.27,1,1.41,1,1.68h-.24l-.24,1c-.47.15-.21,0-.48.24-1.23,0-1.22-.3-1.92-.72,0-1.23.3-1.22.72-1.92m3.36-38.2v-.24a1.94,1.94,0,0,0,.72-.48h1.2c.21.27,0,0,.25.24v.24c-.47.15-.21,0-.49.24Zm114.85,59.58a2.62,2.62,0,0,1,.24-1h2.4l-.24,1.2-.72.24v-.24a4.53,4.53,0,0,1-1.68-.24m3.12,2.65c-.27.21,0,0-.24.24a4,4,0,0,1-1.44-.24v-1a3.66,3.66,0,0,0,1.68-.72h.24l-.24,1.69m1.68,24c-.52-.07-.45,0-.72-.24h-.24v-.24h1Zm15.86-47.09v-.48h.48v.48Zm-.48-9.85c.27-.21,0,0,.24-.24.56,0,.68,0,1,.24s.17.2.24.72a2.71,2.71,0,0,1-1.44,0Zm.24,3.12a3.31,3.31,0,0,1,1,.48c0,.61,0,.91.24,1.21-.15.47,0,.2-.24.48s0,0-.24.24a4.39,4.39,0,0,1-.24-1.69c-.89-.1-1-.18-1.2-1,.52.08.45,0,.72.24m-1,13.94v.48c-.76,0-1.77.1-2.16-.24s0,0-.25-.24c.82-.29,1.3-.05,2.41,0M424.3,308c.46.15.2,0,.48.24H425c-.24.36-.47.42-.72.72h-.25a2.81,2.81,0,0,1,.25-1m1.2,3.85-.24.72-1,.24v.24c-.68.23-.91-.21-1.45.24l-1.44-.24a5,5,0,0,0,0-1.93c1.73.28,2.45-.15,4.09.73m-1,24,.72.24v.24a14.2,14.2,0,0,1-2.65-.24c-.2-.66-.05-.52-.72-.72.29-.94.84-.66,1.44-1.2.54-.22-.24-.36-.48-.48v-.24a6.13,6.13,0,0,1,2.65,1,4.86,4.86,0,0,1-2.41.72v.48c.64,0,1.13,0,1.45.24m-2.89-2.16c-.47-.15-.21,0-.48-.24.47.15.21,0,.48.24m-1-24.75,1-.24.24.72-1.2.24ZM420,338.52a11.25,11.25,0,0,1,2.16.24c-.07.53,0,.46-.24.73-.08.09.06.4-.24.24l-.48-.72c-.52-.26-.49.2-1-.25H420Zm0,13.94-1.44.24v-.48a1.39,1.39,0,0,0,1-.48c.25.27.1,0,.24.48H420Zm.24-1.44-.72-.24c-.17-.57-.07-.44-.48-.72v-.24l1.2.72Zm1-1c-1.1-.17-.95-.73-1.68-1.2v-1c.6,0,.9,0,1.2.25.69.2.52.35,1,.72a2.18,2.18,0,0,1-.48,1.2m1.68-5.05v.72l-.48.24c-.27.62.21.91-.24,1.44,0,.09.05.43-.24.24v-.24c-.89-.65-.06-.56-.48-1.44-.06-.14-.36-.24-.48-.48h-1.2c-.07-.52,0-.45-.24-.72v-.24h1.44v-.48a4.51,4.51,0,0,0-1.68,0l-.24-.72c.27-.21,0,0,.24-.24a17.47,17.47,0,0,1,4.32.72c-.16,1.15-.38.6-.72,1.2m.48-3.36h1.21s.56.41.72.48a1.19,1.19,0,0,1-.72,1c-.39.45-1.63-.77-2.17-1h-1.68a2.3,2.3,0,0,1,.48-1.68v-.24c.87-.28,1.79,1.25,2.16,1.44m.72-3.61a7.65,7.65,0,0,1-3.12-.48h-.48v-.24l3.6-.24c.09.24.17.48.25.72-.27.21,0,0-.25.24m2.41.24-1.44.24c.08-.24.15-.48.24-.72l1.2-.24Zm0-5c-.87.07-1.33.41-2.16,0-.08-.16-.16-.32-.25-.48l-1-.24V332h.73v.48c.46.15.2,0,.48.24h1.2a1.06,1.06,0,0,0-.48-.48V332c.8,0,1.06.06,1.44.48s0,0,0,.72"/><path class="cls-2" d="M369.52,322.91l-.24-1.44-.48-.24c-.21-.7.72-1.11.48-1.93-.16-.51-1-.79-1.21-1.2v-.72h-.23c-.39-1.24.57-1.58.72-2.16.24-1-.62-.87-.72-1.2.15-.64.32-1.28.48-1.92l-.48-.72v-.73c-.11-.23-.61-.53-.73-.72v-.48l-.48-.48.24-2.16h.24c.24-.64.09-1,.48-1.44a8.88,8.88,0,0,0-2.16-3.12l-.72-.49-.24-3.12-.72-.48c-.34-.75.4-1.45.24-1.92l-.48-.24-.24-1.2c-.37-.8-.9-.86-1-2.17l.72-.23c.15-.47,0-.21.24-.49v-1.44l-1-.72v-.48a17.37,17.37,0,0,0-2.4-2.64v-.48h-.48a1.92,1.92,0,0,0-.72-1c.16-.56.31-1.12.48-1.69-1.9-1.6-4-3.31-6.73-3.36,0,.57,0,.68-.24,1s-.14.18-.72,0v-.24l-.24.24H351l-.48-.72-.73.24c0,.57,0,.68-.23,1-.71.64-1.81.13-2.89.48v.24H346l-.48.48a.4.4,0,0,1-.48-.24c-.9-.05-1.21.78-1.92-.24-.77.21-.87.31-1,1.2-1.18-.27-2.65-.95-3.85-1.2l-1.2.24v.24a4.91,4.91,0,0,1-2.16-.24l-1,.24.24.72a14.76,14.76,0,0,1-7.93,1.93v1c-.72,0-1.55-.08-1.92.24s0,0,0,.72a3,3,0,0,0-1.68.72h-.48l-.25.24c.09.16.17.32.25.48-.42.48-.78.41-1,1.2-1.39.38-1.49,1.78-2.16,2.89l-.48.24v1c-.32.74-1,1-1.2,2.16l1.2.24c-.09,1.51-.34,1.86,1,2.16-.14,1.49-.86,1.94-1.44,2.88a10.1,10.1,0,0,0-1,3.85h1c-.12,1.46-.63,1.13-1,2.16v5.05l.48.24v.48l.48.48-.24,1.92.72.24a2.56,2.56,0,0,0,.72,1.44v.24l.48-.24.24.72c.67.19.7.43,1.2.72a3.7,3.7,0,0,1-1.2,2.89c0,1.7.17.93,1,1.68.62.61.81,2.09,1,3.12h.73c-.09,1.15-.43,1.25-.48,2.4l.72-.24c.37.25-.26.43.72.72l-.24,1.45h-.24l.24,1.92a12.12,12.12,0,0,1,1.2.24l1,1.2c1,.54,1-.5,1.44,1l2.16.24.48.72h.72v.24l1.2-.24v1a10.1,10.1,0,0,0,1.69-.72l.24-.48,1.44-.48.48-.48h1l.48-.48h.48l.24-.48s1.22.18,1.44.24v.24l2.41-.24.48.48h1v.24h1.44l.24.72c.27.21.21-.18.24-.24a12.2,12.2,0,0,1,2.64-.48v.48l1.44-.48a7.14,7.14,0,0,1,.73-.72l2.16.24.24.72c1-.14.43-.16,1-.48h.48l.24-.48c.4-.15,1.56.31,2.4,0l.48-.48,1.2-.24c.35-.22.9-1,1.45-1.2h1.2l.48-.48h1.44l.48-.48h.72v-.24l1.2-.24.24-.48,1-.25.72-1h.48l.24-.72L370,326c.35-.64.05-1.41.24-1.68,0-1,.09-1.21-.72-1.44M334,293.36h-.48c-.3.92-.92.71-1.2,1.68-.61.15-.53.4-.73.48l-.47-.24v.24c-.92.59-.44,1.07-1.93,1.44v.24c-.55.21-.79-.56-1.2-.48V297l-1.2.24v-.48c-.52.07-.45,0-.72.24h-.24l.24-.72h-.48a6.52,6.52,0,0,1,0-2.64l2.4-1.2v-.49l1.44-.24.24-.48c.74-.21.35.65,1.2,0,.4-.3.32-.14.49-.72h1v.72h.24v-.48l1.2-.24c0,.61,0,.91-.24,1.2.27.26,0,.1.48.24Z"/><path class="cls-1" d="M348.37,219.6v1c-1.64-.36-2.47-1.36-4.56-1.44v-.48l1.68-.24.48.72,2.4.48"/><path class="cls-1" d="M383,235.69c-1.27.07-2.08.32-2.4-.72a16.17,16.17,0,0,0,2.64-.48v.24c-.58.47-.31.16-.24,1"/><path class="cls-1" d="M384.17,235.69a3.83,3.83,0,0,1,1.44.24c-.2.27,0,0-.24.24s-.19.17-.72.24c-.27-.25,0-.09-.48-.24Z"/><path class="cls-1" d="M387.06,238.1v.48a2.63,2.63,0,0,1-1.93-1,10.89,10.89,0,0,1,1.93.48"/><path class="cls-1" d="M389.22,238.1a4.57,4.57,0,0,1,2.16.48v.24h-1c-.32-.34-.87-.4-1.2-.72"/><path class="cls-1" d="M318.1,242.42c-.19.67-.06.52-.72.72-.27.26,0,.09-.48.24v1c-.34.18-.46.57-.72.72-.94.54-1.35,0-1.68,1.21-.76.08-.39.4-1,0-.27-.21,0,0-.24-.25a11.38,11.38,0,0,0,2.4-2.4l1.44-1.2Z"/><path class="cls-1" d="M303.69,245.06c.18-.71.25-.77.95-1,.21.27,0,0,.25.24-.08.16-.16.32-.25.48a2.51,2.51,0,0,1-.95.24"/><path class="cls-1" d="M308.73,245.54V246q-1,.1-1.92.24v-1c1.27-.22.83,0,1.92.24"/><path class="cls-1" d="M396,246.75c.56.13.41.32.72.48l1.92.24s.56.41.72.48c-.14.47,0,.21-.24.48v.24h-.48c-.66-.92-2-.95-2.64-1.92"/><path class="cls-1" d="M306.33,247v.48l-1.68.24v-.24h.24c.37-.42.63-.45,1.44-.48"/><path class="cls-1" d="M308.49,248.91c-.2.78-.31.86-1.2,1v-.24h.24c.28-.48.33-.55,1-.72"/><path class="cls-1" d="M397.87,250.59l3.6.48.24,1h.48v.48a13.93,13.93,0,0,1-4.08-1.44c-.26-.27-.09,0-.24-.48"/><path class="cls-1" d="M400.75,255.39c.16.66.31.56.48,1.21h.48v.48c-.88-.42-1.26-1-2.4-1.2.27-1,.79-.81,1-1.93-.58-.16-.43-.07-.72-.48H400c.28-.24.4-.2,1-.24.41.67.95.83,1.2,1.68H402c-.34.38-.51.41-1.2.48"/><path class="cls-1" d="M407,254.19c-.31,1-1.1.81-1.68,1.45a3.29,3.29,0,0,1,1.2,1.2H406a3.12,3.12,0,0,0-2.17-1.2v-.49h.48c.23-.43.33-.38.48-1,.11-.1.4.07.24-.24h-.24c-.05-.08-.59-.39-.48-.48h.24c1-.81,1.6.46,2.41.72"/><path class="cls-1" d="M409.16,257.32v.48c-.58-.16-.43-.08-.72-.48Z"/><path class="cls-1" d="M403.87,257.56c.53.07.46,0,.72.24-.55.34-.34.11-.72-.24"/><path class="cls-1" d="M413.72,260.68v.48a2,2,0,0,0-1,.72c-.56.17-1.61-.8-2.16-1l.24-1.2a3,3,0,0,0-1-.48v-.72c.76-.08.39-.41,1,0a4.59,4.59,0,0,1,1.2,1.92l1.68.24"/><path class="cls-1" d="M384.65,264.28a9.11,9.11,0,0,1,3.13.73v.24h-1a4.89,4.89,0,0,0-2.17-.48Z"/><path class="cls-1" d="M405.55,265.25h1v.24h-.23c-.64.41-.29.29-.73-.24"/><rect class="cls-3" x="298.16" y="270.05" width="0.48" height="0.48"/><path class="cls-1" d="M267.17,271.73h1.44l-.24.72c0,.1.43.07.24.48l-1.2,1v.49l-.72.48a7,7,0,0,0-.72.72v.48c-.29.38-.89.59-1.21,1l-1-.24c-.19-.67-.06-.52-.72-.72.2-.67.06-.52.72-.72.28-.26,0-.09.48-.24.42-1.62,1.88-2.51,2.65-3.85.25.27.09,0,.24.48"/><path class="cls-1" d="M286.39,271.73h1.2l-.24.72-1-.24Z"/><path class="cls-1" d="M287.11,272.93v.48h-.48v.72c-.2.4-1,.75-1.2,1.21s.1.77-.24,1H283c-.2-.21-.52-.28-.72-.48h.24a3.59,3.59,0,0,1,2.65-1.2,4.29,4.29,0,0,1,1-1.93c.28.25.39.21,1,.24"/><path class="cls-1" d="M264.76,278l-1,2.88c-.79.36-1.48.61-2.4,1a2.09,2.09,0,0,0,.24,1.2h-.24c-.37.33-1.2.26-1.92.25.18-.72.36-.6.48-1.45-1.92,0-2.15.85-3.6,1.2v-.24a8.22,8.22,0,0,0,1.92-2.88c.69.17,1.54.85,2.64.48v-.24l1-.24c.39-.7.82-.92,1-1.92a5,5,0,0,1,1.92,0"/><path class="cls-1" d="M278,283h.48v.25c-.47-.15-.21,0-.48-.25"/><path class="cls-1" d="M261.16,286.63c-1.1.22-.91.35-1.92.24v-.72c.65-.39.59-.65,1.68-.72a3.15,3.15,0,0,1,.24,1.2"/><path class="cls-1" d="M259,287.83a3.3,3.3,0,0,1,1.68,0c-.21.27,0,0-.24.24-.46.44-.49,0-1,.24-.28.16-.32.76-.48,1l-.24-.24h-.24l.24-.72c.25-.27.09,0,.24-.48"/><path class="cls-1" d="M422.85,294.56a3.23,3.23,0,0,1,1.69,0A2.31,2.31,0,0,1,425,296c-.28.21,0,0-.24.24h-.48c-.45-.72-1.17-.81-1.45-1.68"/><path class="cls-1" d="M427.66,294.32v.48c-.27-.21,0,0-.24-.24s0,0-.24-.24Z"/><path class="cls-1" d="M421.89,296.72h-1.2c-.39-.65-1-.84-1.44-1.44a5.48,5.48,0,0,1,1.92-.24c.39.65.65.59.72,1.68"/><path class="cls-1" d="M429.34,296.72c0,.68-.26.36,0,.72s0,.09.48.24v.48l-1.2-.24v-.48c-.57-.29-1-.5-1.2-1.2.27-.21,0,0,.24-.24a3.34,3.34,0,0,0,1.68.72"/><path class="cls-1" d="M423.57,296.72h.48v1a3.26,3.26,0,0,0,1.21.24v.48a3.94,3.94,0,0,1-1.93,0c-.08-.24-.15-.48-.24-.72h.48Z"/><path class="cls-1" d="M425.26,296.72v.48l1.44.24v1h.48v.48l-1.2-.24c-.22-.82-.61-1-1.45-1.2.2-.67.07-.52.73-.72"/><path class="cls-1" d="M420.21,297.2l.72.24-.24.72h.24c.44.6.72.29,1.2.72h-.24c-.34.38-.51.41-1.2.48a1.39,1.39,0,0,0-1-.48,1.85,1.85,0,0,1,.72-1l-.24-.72"/><path class="cls-1" d="M261.88,297.92v.48c-.58-.16-.43-.08-.72-.48Z"/><path class="cls-1" d="M423.57,298.88v.48c-.26-.2,0,0-.24-.24s0,0-.24-.24Z"/><path class="cls-1" d="M419.73,299.6c.52.07.45,0,.72.24-.52-.07-.45,0-.72-.24"/><path class="cls-1" d="M423.33,299.84a7.53,7.53,0,0,1,1.69.24c.32,1.06,1,.71,1.2,1.92H425v-1c-.7-.27-1.44-.4-1.69-1.2"/><path class="cls-1" d="M420,300.56h1.68l.24.72a6.68,6.68,0,0,1,1.44.72c-.14.48,0,.21-.24.49s-.39.2-1,.24c-.48-1.22-.74-1.42-2.16-1.69Z"/><path class="cls-1" d="M430.78,302.73a6.49,6.49,0,0,1-1.44-.73v-.72L431,301c.21.27,0,0,.24.24-.18.72-.36.6-.48,1.45"/><path class="cls-1" d="M428.86,302l-.24,1.21a3.1,3.1,0,0,1-1,.24c-.38-.56-.73-.45-1-1.2.27-.21,0,0,.24-.25a7.71,7.71,0,0,1,1.92,0"/><path class="cls-1" d="M264,302v.49h-1l-.24-.49Z"/><path class="cls-1" d="M272.45,302.25V303a1.72,1.72,0,0,0-.72.72c-.47-.15-.21,0-.48-.24-.58-.16-.43-.08-.72-.48a3.16,3.16,0,0,0,1.2-1l.72.25"/><path class="cls-1" d="M291.19,304.41v-1c.88-.19,1.77-.39,2.41.24h-.24c-.54.45-.82,0-1.45.24-.24.1-.09.32-.72.48"/><path class="cls-1" d="M271.25,304.65c-.07.52,0,.45-.24.72v.24h-.72c.18-.71.26-.77,1-1"/><path class="cls-1" d="M401.71,310.65c.67.2.52.06.72.73h-.72Z"/><path class="cls-1" d="M429.34,314.5l.24-.72.72.24c-.2.27,0,0-.24.24s-.2.16-.72.24"/><path class="cls-1" d="M268.85,314c.52.07.45,0,.72.24-.52-.07-.45,0-.72-.24"/><path class="cls-1" d="M267.17,315.46V315h-.48c.2-.27,0,0,.24-.24a2.66,2.66,0,0,1,1.68-.24c.28.24.39.21,1,.24a1,1,0,0,0,.48.48v.24h-.48c-.63.7-1.76.74-3.13.72l-.23-.48h.48c.27-.26,0-.09.48-.24"/><path class="cls-1" d="M268.61,321h-.48a5.56,5.56,0,0,0-.48,2.88h.24l-.24.72h-.24c-.12.45.72.32.48,1-.15.37-1.16.66-1.44,1-.14,0-1.85-.61-1.69-.72h.48c0-.63.05-1.11-.24-1.44h-.48c-.23-.25.23-.24.24-.24.26-.31.49-.37.73-.72-.46-.32-.39-.24-.49-1l.73-.24v-.48H266c0-.39-.42-.3-.48-.48V320c1.21-.67,2.06-1.58,3.84-1.69a3.08,3.08,0,0,1,.48,1c-.83.36-1.15.5-1.2,1.69"/><path class="cls-1" d="M265.24,329.63h2.41c.2.27,0,0,.24.25v.71a8.52,8.52,0,0,1-1.92.49c-.21-.76-.51-.69-.73-1.45"/><path class="cls-1" d="M425.5,329.63c.52.07.45,0,.72.25-.53-.07-.46,0-.72-.25"/><path class="cls-1" d="M267.65,332.76a11.48,11.48,0,0,0,.24,2.4,3.43,3.43,0,0,0,1.2.72v.72l-1.2.24-1.44-1.92c-.09-.56-.16-1.12-.24-1.68l-.49-.24s-.51,0-.24-.24h.24c.32-.28.81-.25,1.45-.24.27.25,0,.09.48.24"/><path class="cls-1" d="M268.61,337.56c-.05,1-.28.94-.48,1.68h-.72v-.72c.55-.37.44-.72,1.2-1"/><path class="cls-1" d="M425,338.52l1.44-.24v-.72l-1.2.24-.24.72"/><path class="cls-1" d="M269.81,342.61c.52.07.45,0,.72.24-.52-.07-.45,0-.72-.24"/><path class="cls-1" d="M428.38,343.09c.24.12,1,.27.48.48-.26.3-.4.28-.72,0l.24-.48"/><path class="cls-1" d="M271.25,343.81a3.58,3.58,0,0,0,.24,1.68h-.24v.24c-.27-.21,0,0-.24-.24a9.52,9.52,0,0,1-1.2-1.92h.72c.27.24.2.16.72.24"/><path class="cls-1" d="M427.66,344.05h.48a3.56,3.56,0,0,0,.24,1.68h-.24c-.15.1,0,.38-.48.24v-.24c-.26-.27-.09,0-.24-.48.26-.3.23-.6.24-1.2"/><path class="cls-1" d="M426.7,346.21h.72v1.2c-.77-.22-.69-.26-.72-1.2"/><path class="cls-1" d="M275.58,353.66l1.92,1v1l.72.48v.72l1.44,1v1c.26.61.77.84,1,1.68l-.72.24c.21.27,0,0,.24.24s1.33,1.37,1.44,1.44c1.15.76,2.18,0,2.64,1.68h.48v.48l-1,.24c.21.75.45.8,1.21,1v1c-1.15-.16-.59-.34-1.21-.72l-1.44-.24-.72-.48c-1.16-.32-1.69.45-2.88.48a24.89,24.89,0,0,0-1.44-2.88c-1.2-.87-2.31-.82-3.13-2.16a3.73,3.73,0,0,1,1.45-.24c.46.73,1.16.73,1.44,1.68a15.24,15.24,0,0,0,2.4,0h.24c-.35-.38-.63-.22-1-.48l.24-.24c.35-.59.74-.68,1-1.44a2.31,2.31,0,0,0-1.68-.48c-.54-.41-1.18.14-2.16.24-.21-.27,0,0-.24-.24v-.72a8.94,8.94,0,0,1,1.92-.24L278,358l-1.68-1v-.72c-.82-.1-1.39.09-1.93-.48h.48c.43-.5.74-.41,1-1.2-.83-.21-1-.6-1.21-1.44a3.58,3.58,0,0,1-1.92-1v-1c-.22-.36-1.07-.42-1.44-1a3.21,3.21,0,0,0,1-1.93h-.48c-.16-.65-.31-.55-.48-1.2a1,1,0,0,0,.48-.48c.47.15.21,0,.48.24l.72.24.24,1.2h.24l-.24,1.69c.33.76,1.22.13.72,1.44.72,1,1.52.27,1.69,2.16"/><path class="cls-1" d="M391.86,354.62c.23-.81.43-.73,1.44-.72.27.26,0,.09.48.24v.24h-.24c-.34.49-.38.44-1.2.48-.27-.25,0-.09-.48-.24"/><path class="cls-1" d="M422.85,358h-.48c.21-.27,0,0,.24-.25v-.24c.26.28.09,0,.24.49"/><path class="cls-1" d="M272.69,358h.72l1.45,1.92h-1c-.29-.33-.43-.36-1-.48a4.13,4.13,0,0,1-.24-1.44"/><path class="cls-1" d="M261.64,359.67a2.39,2.39,0,0,1,1,.24c-.27.25,0,.09-.48.24a.47.47,0,0,1-.72,0l.24-.48"/><path class="cls-1" d="M264.28,361.35l.72.24c-.2.27,0,0-.24.24s-.59.23-1.2.24c-.2-.76-.5-.69-.72-1.44.8,0,.63-.24,1,0s.32.15.48.72"/><path class="cls-1" d="M271.73,361.35h.72l.24,1h.48v.48l-1.2-.24-.24-1.2"/><path class="cls-1" d="M278.46,362.55c-.12.59-.09.21,0,1l.72.24c.68.62,2.91.21,3.36-.24.27-.21,0,0,.24-.24h-.24c-.73-.6-3.06-.54-4.08-.72"/><rect class="cls-3" x="263.8" y="363.03" width="1.92" height="0.48"/><path class="cls-1" d="M273.89,364c.53.07.46,0,.72.24s.1,0,.24.48c1.43.39.8,1,1.45,1.92.42.64.89.19,1.2,1.21a4.92,4.92,0,0,1-2.16,0c-.37-.76-.51-1.66-1.45-1.93a3.9,3.9,0,0,0,0-1.92"/><path class="cls-1" d="M268.13,368.08v-.48h.48v-.48l-1.2-.25v-.48l1.44-.24c.13,0,.66.69.72.72l1.44.48.24.73c.3.37,1,.51,1.44.72-.2.27,0,0-.24.24s-.2.16-.72.24a16.35,16.35,0,0,0-3.6-1.2"/><rect class="cls-3" x="280.86" y="367.36" width="0.48" height="0.48"/><path class="cls-1" d="M272.69,369.76a3.47,3.47,0,0,1,1.44.24c-.18.23-.29.24-.48.48l-1-.24Z"/><path class="cls-1" d="M276.06,371.92a2.34,2.34,0,0,1-1.93-1h1.69c.2.27,0,0,.24.24Z"/><rect class="cls-3" x="277.5" y="372.88" width="0.48" height="0.48"/><path class="cls-1" d="M277.5,374.08l.72.24v.24c-.58-.16-.44-.08-.72-.48"/><path class="cls-1" d="M280.62,377.93a9.33,9.33,0,0,1,3.6,1.2c.26.27.1,0,.25.48h-2.41v-.48c-.68-.28-1.21-.42-1.44-1.2"/><path class="cls-1" d="M409.4,379.61l-.24.72c-1.29,0-1.32.11-1.92.72l-.25-.24c-.23-.27-.16-.2-.23-.72l-.72-.24v-.24c.27-.21,0,0,.24-.24l1,.24v.24l2.16-.24"/><path class="cls-1" d="M286.63,380.81v1a3.91,3.91,0,0,1-1.44.24c-.4-.46-.87-.65-1.2-1.2.26-.21,0,0,.23-.24l1.69-.24c.28.41.15.31.72.48"/><path class="cls-1" d="M403.39,380.81c.55.12.44.36.72.48,1.36.59,2.39-.43,3.37.48h-.24a8.06,8.06,0,0,1-2.41.48c-.07.4-.16.8-.24,1.2a11.16,11.16,0,0,1-3.36.72v-.48a5.65,5.65,0,0,0,3.12-1.68,3,3,0,0,0-1-.48Z"/><path class="cls-1" d="M397.63,382v.48l-1.44.24v-.24c-.27-.21,0,0-.24-.24a4.5,4.5,0,0,1,1.68-.24"/><path class="cls-1" d="M392.1,388.26V389c-.88.24-.56.52-1,.72h-1v.24h-1v.24h-1v.24h-1.2v.24h-1.45c-.14.06-.52.65-.72.72l-3.6.48-.72,1.2a6.12,6.12,0,0,1-4.33.72v-.48H377c.23-.43.33-.38.48-1,.58-.14.39-.29.73-.48h.48v-.24h2.16l1-.72,1.44-.24.24-.48.24.24,2.4-.48v-.24h1l.72-1.2h.48a6.47,6.47,0,0,1,2.88-1.2c.26.58.27.75,1,1"/><path class="cls-1" d="M156.17,18.5c.27.26,0,.09.48.24-.27-.26,0-.09-.48-.24"/><path class="cls-1" d="M214.07,37.48v-.72c.66-.19.71-.41,1.2-.72V35.8l3.6.24a2.18,2.18,0,0,1,.48,1.2c-.26.21,0,0-.24.24a14.71,14.71,0,0,0-2.16.72c-.92.21-2.07-.55-2.88-.72"/><path class="cls-1" d="M228.73,38.92c-.2.67-.07.52-.73.72-.29.26-.59.24-1.2.24.2-.67.06-.51.72-.72.3-.26.6-.23,1.21-.24"/><path class="cls-1" d="M33.4,58.86c-.2.68-.07.52-.73.73v.47l-1.44-.24c.29-1,.15-.23.72-.72.23-.19.24-.52.48-.72a1.39,1.39,0,0,0,1,.48"/><path class="cls-1" d="M275.09,67.51h2.41c.14.28.63.49.48,1h-.24c-.42.75-.72,1-1.92,1-.66-.85-.29.07-1-.49s0-.91.24-1.44"/><path class="cls-1" d="M282.54,89.62v-.48c1-.12,1.63-.47,2.41-.24l-.24.48a3.57,3.57,0,0,1-1.69.48c-.27-.26,0-.09-.48-.24"/><path class="cls-1" d="M283.74,95.62a10.42,10.42,0,0,1-.24-1.92,3.24,3.24,0,0,1,1.2-.24c.59.61,1,.31,1.21,1.44l-.48.24a2.3,2.3,0,0,1-1.69.48"/><path class="cls-1" d="M48.05,100.91c-.09-.79-.45-1.12,0-1.68a6.13,6.13,0,0,1,.72-1.45h.72v-.23c.17,0,.74.22,1.2.23.21.28,0,0,.24.25l.24,1.2A6.14,6.14,0,0,0,49,101.15a2.57,2.57,0,0,0-1-.24"/><path class="cls-1" d="M291.91,103.07h1a2.62,2.62,0,0,1,.24,1c-1,.58-1.33,1.35-2.88,1.44-.39-.65-.65-.59-.72-1.68.27-.21,0,0,.24-.24a3.93,3.93,0,0,0,2.16-.48"/><path class="cls-1" d="M48.29,105a7.19,7.19,0,0,1,3.6.24l.25.72c.39.51.1,1.32,0,1.93-.33.19-.46.55-.73.72h-.48a4.37,4.37,0,0,1-2.88.48,4.91,4.91,0,0,1-.48-2.65c.6-.35.68-.48.72-1.44"/><path class="cls-1" d="M295.76,107.88v.72c-1,.21-1.4.86-2.16,1.2l-2.17.48s-.46.47-.48.48a8.79,8.79,0,0,1-3.6,1c-.62-.69-1.28-.7-1.44-1.92.81-.48,1.19-1.41,1.92-1.92.57-.41,1.23-.46,1.68-1,2.74,0,3.69.9,6.25,1"/><path class="cls-1" d="M54.3,114.6v1.2a2.26,2.26,0,0,1-1.2.49c-1.27-1.05-3.32.16-4.33-1.45a1.8,1.8,0,0,1,1.44-3.12c.3-.26.6-.23,1.2-.24.31.47.91.54,1.21,1,.69,1,.25,1.76,1.68,2.16"/><path class="cls-1" d="M50.93,118.45l.24,1.44-.72.24v.24c-.28.19-.19-.16-.24-.24-.23-.24-.29-.67-.48-1H50a1.16,1.16,0,0,1,1-.72"/><path class="cls-1" d="M291.19,119.65a6.9,6.9,0,0,1,1.68.24l1.21,1.44c-.15.47,0,.21-.25.48-.39.57-.93.51-1.92.48-.77-.69-1.49-.3-1.68-1.68.26-.27.09,0,.24-.48a1.94,1.94,0,0,0,.72-.48"/><path class="cls-1" d="M51.65,122.05c1.36,0,3.93,1.16,4.33,1.92l.24,1.44c.45.77.89.56,1,1.93-1.34.95-.45,1.42-1,2.88H56l-.24,1.2c-.17.29-.74.45-1,.72l-1.44-.48c-.85-1.81-3-3.66-2.41-6v-2.89c.1-.21.56-.44.72-.72"/><path class="cls-1" d="M60.79,129.74v.72h-1v-.24h.24c.29-.41.15-.31.73-.48"/><path class="cls-1" d="M60.79,133.82v.49c-1.55.31-1.29,1.78-1.21,3.6.66.71.36,1.68.24,2.64-1.39.78-2.41,2.7-3.84,3.12a11.88,11.88,0,0,1-1.2-1.92l-.24-1.92.48-.24v-1.68l.48-.48v-.72c.61-1.13,2.26-2.34,3.12-3.37a7.59,7.59,0,0,0,2.17.48"/><path class="cls-1" d="M291.67,134.3a7.59,7.59,0,0,1,.48,2.17c-1.72.9-3.1,2.12-3.36,3.84-1,.33-.67.92-1.44,1.2-.93.34-1.69-.46-1.92-.48s-.48.23-1,.24c-.37-1.61-1.76-1.54-2.16-3.12-.85-.16-1.08-.25-1.2-1.2.27-.21,0,0,.24-.24a17.31,17.31,0,0,0,2.88-.72c1.47-.4,2.62.61,4.09,0,1.18-.5,1.23-1.7,2.88-1.93.27.26,0,.09.48.24"/><path class="cls-1" d="M76.88,147A7.81,7.81,0,0,0,79,147c.21.27,0,0,.25.24v.48l-2.41,2.16-.24,2.16c.73.4,2.47,1.8,2.65,2.65-.09.24-.17.48-.25.72-.67.19-.51.06-.72.72h-1.2a3.81,3.81,0,0,0-1-1.68c-.26-.2-.74-.18-1-.48L75,153s-1.16-1.17-1.2-1.2c-.65-.42-.93,0-1.44-.72.57-.39.14-.26.48-.72l.72-.48v-.48c0-.06.71-.94.72-1a5.71,5.71,0,0,0-.24-2.64,3.87,3.87,0,0,1,.48-2.65c1.63-.2,3.39-.18,3.6,1.69a4,4,0,0,0-1.2,2.16"/><path class="cls-1" d="M70.64,144.64c-.2.67-.07.51-.73.72l-.24.72a3.32,3.32,0,0,1-1-.48c-.27-.21,0,0-.24-.24a3.5,3.5,0,0,0,1-.72Z"/><path class="cls-1" d="M60.79,149.44H60.3a9.48,9.48,0,0,1-2.64,2.64l-.24-1c-.71-.18-.77-.26-1-1,.67-.68.12-.79.48-1.68s3.55-3.55,4.57-2.88c.23.27.16.19.24.72-1.2,1.07,0,.74-.48,2.16H61Z"/><path class="cls-1" d="M65.59,147.76l-.24.72h-.72l.24-.72Z"/><path class="cls-1" d="M59.82,161.69c1-.16,2.62-.44,3.13-1.2.37-.47.09-1.21.48-1.68.29-.26.6-.23,1.2-.24v-.24l.72.24c.21.27,0,0,.24.24.12,1,.86,2.53.48,3.12-.36,1.64-2.49,2.44-4.56,2.41-1.08-.93-1.9,0-1.93-2.17.26-.27.09,0,.24-.48"/><path class="cls-1" d="M59.82,158.81l.24,1.2a3,3,0,0,1-1.2.24l-.24-1a2.26,2.26,0,0,1,1.2-.48"/><path class="cls-1" d="M64.63,166.5h1c.31.52.9.75,1.2,1.2l.48,1.44,1.44,1V172c-.63.56-.55,1-1.68,1.2-.87-2-1.6-3.43-3.6-4.33l-.24-1.68c.24-.12.33-.4.48-.48.5-.26.49.19,1-.24"/><path class="cls-1" d="M70.15,175.63a17.88,17.88,0,0,1,.49,1.92c-.86.51-1.34,1.38-2.41,1.68a14.41,14.41,0,0,0-.72-3.12h.24c.49-.54,1.33-.51,2.4-.48"/><path class="cls-1" d="M72.8,193.65h1a1.82,1.82,0,0,0,.48.72c-.15.47,0,.21-.24.48a1.16,1.16,0,0,1-1,.72c-.79-1.11-1.67-.83-1.68-2.88-.45-.55,0-.92-.24-1.68h-.25c.09-1,.17-2.09.25-3.13a7.2,7.2,0,0,1-.49-1.92,2.37,2.37,0,0,1,1.45-.48l2.16,1.44v.48c.52.9,1.17,1.75,0,2.64h-.48c-.39.3-.58.89-1,1.21v1.2h-.24c0,.17.22.73.24,1.2"/><path class="cls-1" d="M77.6,198.21a15.4,15.4,0,0,1,.48,3.37c-.93.55-1.54,1.6-2.64,1.92v-.24c-.66-.74-.74-2.22-.72-3.61.59-.35.68-.74,1.44-1a2.18,2.18,0,0,1,1.44-.48"/><path class="cls-1" d="M76.64,207.58c.73.21.62.14.72,1a4.56,4.56,0,0,1-1.68.24l-.24-1a1.89,1.89,0,0,0,.72-1c.27.21,0,0,.24.24s.09,0,.24.48"/><path class="cls-1" d="M267.65,227.28l1.2.25a3.41,3.41,0,0,0,.72,1c-.14.47,0,.21-.24.48l-.72,1c-.2-.16-.3-.62-.48-.72s-1.07-.19-1.2-.24c-.57-1.32-1.21-3-1.69-4.33v-1l-.48-.48-.24-1.44h-.24a2.65,2.65,0,0,1,.24-1.68h.24c.36-1.12-.31-1.93-.48-2.65a3,3,0,0,0-1-.24c-.84,1-2.24,1.42-4.08,1.45-.49-.56-1-.58-1.2-1.45,1.66-1.1.89-3.61,1.2-5.52.41-.19.72-.26,1.2-.48V211l3.36-.72.48-.48,1.44-.48V209l6.73-1.45v.24l1.44.24.24.72c.25.28.21.4.24,1-.65.53-.94,1.74-1.68,2.16H272c-.63.25-3.36,1-3.6,1.44v.72c1.3,1.37.18,2.71-.24,4.08V221l-.72,1v.72h-.24c-.51,1.64.36,3.29.48,4.56"/><path class="cls-1" d="M78.32,215.27a15.11,15.11,0,0,1,1.93.72c-.17.48-.32,1-.48,1.44l-.49-.24-1-1.92"/><path class="cls-1" d="M272.45,223.2a10.71,10.71,0,0,1-2.4.48,23.42,23.42,0,0,1-.48-3.12l.72-.24v-.72a11.57,11.57,0,0,1,1.68-.48c.21.27,0,0,.24.24l-.48.72c-.05.32.95,2.15,1,2.4l-.24.72"/><path class="cls-1" d="M265,234l-.24.72c-.47-.14-.2,0-.48-.24-1.18-.33-1.27-1.58-1.68-2.64,1-.65,1-1.21,2.89-1.2.87.83,1.27.44,1.44,2.16-.73.44-.93,1-1.93,1.2"/><path class="cls-1" d="M77.36,231.85c.1.87.7,1.84.48,2.16-.34.49-.38.44-1.2.48-.64-.59-1-.25-1.2-1.44.5-.43.42-.73,1.2-1,.27-.24.2-.16.72-.24"/><rect class="cls-3" x="94.18" y="232.57" width="0.24" height="0.48"/><path class="cls-1" d="M81.21,244.82l-1.44.24c-.14-1.24-.41-1.27-.25-2.4l1.21-.24c.2.27,0,0,.24.24l.24,2.16"/><path class="cls-1" d="M80.73,248.43c-.19.71-.26.77-1,1v-.72l1-.24"/><path class="cls-1" d="M85.53,265.73a4.15,4.15,0,0,1-1.44,2.16,2.29,2.29,0,0,1-1.2.48v-.48c.07-.13,2.59-1.47,1.44-2.16Z"/><path class="cls-1" d="M108.36,278.94c-.07.52,0,.45-.24.72v.24h-.72c.18-.71.25-.77,1-1"/><path class="cls-1" d="M91.3,281.82v.48c-1.16.33-1.27,1.24-2.65,1.45.2-1.48.12-2.18,1.93-2.17.27.24.19.17.72.24"/><path class="cls-1" d="M91.78,292.88h-1a13.2,13.2,0,0,1-1.44-4.81h.24c.2.27,0,0,.24.24.19.43.26.71.48,1.2h.24c.24.73-.42,1.24-.24,1.68s1.19.09,1.44,1.69"/><path class="cls-1" d="M94.42,295.28l1.2.24c.5.81.92.75,1,2.16-.76.78-.31,1.89-.24,3.12a2.18,2.18,0,0,1-1.2.48c-.37-.59-1.09-.9-1.44-1.44-.84-1.3-.52-2.66-.24-4.08.27-.21,0,0,.24-.24.52-.07.45,0,.72-.24"/><path class="cls-1" d="M107.88,295.52l1.44.24.24.72c.26.3.23.6.24,1.2-.81.73-.76,1.73-2.17,1.92-.43-.63-.94-.56-1.2-1.44-.26-.3-.23-.6-.24-1.2.36-.3.58-1,1-1.2s.3.18.73-.24"/><path class="cls-1" d="M223.92,301.52a5.11,5.11,0,0,1,4.32.73c.39.32,1.13.8.73,1.2-.19.35-.55.44-.73.72v.72c-.23.3-.68.21-1.2.24-.7-1.06-2.14-.62-2.88-1.68a2.21,2.21,0,0,1-.48-1.45c.26-.27.09,0,.24-.48"/><path class="cls-1" d="M112,321.71v1l-.72.24c-.27.25,0,.09-.48.24V322a3,3,0,0,1,1.2-.24"/><path class="cls-1" d="M115.08,328.91l1.2.48v.24c-.79,0-.63.25-1,0s-.16-.19-.24-.72"/><path class="cls-1" d="M276.3,143.43c.11-.23.6-.52.72-.72l.48-1.44L278,141l1.2-4.32c.45-1,1.48-2.14,1.92-3.13s.6-2.15,1-3.12c2.57.11,7.59,1.68,9.37-.24.21-.2.28-.52.48-.72a2.57,2.57,0,0,0-.24-1,7.45,7.45,0,0,0-2.64.72v.24c-1.93.6-4.44-.93-6.49-1,.52-1.22,1.41-4.92.24-6.25v-1l1.93-1.2v-.24h1c.23-.1.53-.61.72-.72l3.12-1a3.63,3.63,0,0,1,1-1.69,2.65,2.65,0,0,0-2.16-2.88c-.63-.22-1.85,0-2.16-.48v-1.44h-.24v-1h-.24v-1h-.25v-2.16c-.52-1.94-1.42-5.61-2.64-6.73.58-.49,1.62-.16,2.4-.48v-.24h.49c.26-.17.37-.53.72-.72a2.31,2.31,0,0,0-.48-1.44,18.77,18.77,0,0,1-4.57-1h-1.92l-1.2-1.44-1.68-.24s-1.89-1.86-1.93-1.92h-.48v-.24a9.53,9.53,0,0,1,2.65.48c1.31.35,2.29-.37,3.36-.48.21-.27,0,0,.24-.24,0-1.62-.53-1.53-1.68-1.92V89.62a8.31,8.31,0,0,0,3.6-3.85c.27-.21,0,0,.24-.24-.27-.23-.43-.78-.72-1h-.72c-.17-.09-.23-.35-.48-.48v-.48c-.67-.19-.69-.42-1.2-.72a3.15,3.15,0,0,1,.24-1.2c.68-.16,1.32-.53,1.92-.72l2.16-.24c.41-.21.08-.49,1-.72-.37-1.18-1.67-1.15-2.41-1.93A8.63,8.63,0,0,0,277,80h-2.41l-.48-.72-1.2-.24V78.8c-.93-.36-1.87-.24-2.4-1s-.52-2-1.2-2.4l-2.17-.24q-.11-.24-.24-.48h-.47c-.28-.19-.38-.52-.73-.72,0-1.91.27-3-.71-4.33-.49-.31-1-.64-1.45-1l-.24-1.2c-.21-.48-.7-1.19-1-1.68-2.61,0-2.39.91-4.56,1-.46-.53-1.18-.72-1.69-1.2h-.24a20.7,20.7,0,0,0,.49-2.4l.71-.24c-.05-2.3-1.05-2.21-1.44-3.85a4.92,4.92,0,0,1,3.13-.24v.48c.56,0,.68,0,1-.24.44-.7-.78-2.84-1.2-3.6-1.14,0-3.63.38-4.09,0H253c.44-.73,1.14-.86,1.68-1.44.22-.34-.21-.89-.48-1.44-.34-.14-.69-.08-1.2-.24v-.24h-1.92l-1.44-1.93h-1.2V50h-.72l-1-.72c-1-.36-2.07,0-2.89-.48-1.2-.73-1.26-2.27-2.88-2.64a5.09,5.09,0,0,0-.48-1.2c-3.51-.6-4,.16-5.53-2.64-1.3.17-1.17.7-1.92,1l-2.88-.48a6.13,6.13,0,0,0-2.41.48,7.59,7.59,0,0,1-3.12-.24,3.87,3.87,0,0,0-.72-2.17c-.23-.35-.47-.41-.72-.72a13.64,13.64,0,0,0-3.6,1c-.92.26-1.45-.36-1.93-.48a.85.85,0,0,0-.72.24,1.08,1.08,0,0,1-1-.24c-1.31-.32-1.58.5-2.4-.24s-2.09-4.89-2.65-6.24c-.3-.06-4-.18-4.08-.24-.34-.2-.24-.87-.48-1.21s-.71-.48-1.2-.72v-.24h-1.92v-.24h-1.44v-.24h-1V31h-1l-.72-.48c-1.3-.4-2.74.35-3.6.48h-.24v-.24h-.24V31l-.72-.24c.13-.85.81-1.67.48-2.16a2.62,2.62,0,0,0-.24-1c-2.82-1.2-6.76-1.5-9.85-2.4-.71-.21-3.25-.31-3.61,0-3.27.07-1.85-.71-3.12-2.17-.52-.42-1.38,0-2.16-.24l-.48-.48c-.65-.32-1.2-.2-1.92-.48l-.73-.48a.86.86,0,0,0-.72.24,2.46,2.46,0,0,1-3.12-1.44c-1.23,0-1.22.3-1.92.72.15.47,0,.21.24.48v1a5.39,5.39,0,0,1-3.36,1.45v-.24h-1.69v.24c-.48.21-.78.3-1.2.48l.24,2.4-1.44.24-.24-.48-1.2-.24c-.37-1.6-1.49-1.45-2.4-2.4.46-.22,1.19-.53,1.68-.73h.72c.08-.16.16-.31.24-.48h.48s.46-.47.48-.48h.72c.25-.14.4-.54.72-.72,0-.8.06-1.06.48-1.44-.26-2.35-1-1.05-2.64-1.68V18h-.48l-.48-.72h-1v-.24l-4.81.24c-.41-.21-.58-1.18-1.2-1.44l-7.69-1-.48-1.21c-.9-.18-2.4-.4-3.12.25-2.51,0-1.55-1-2.88-1.93-.46-.28-2.15.36-2.89-.24l-.72-.24-.48-1.92a9.39,9.39,0,0,0-4.8.48,6.38,6.38,0,0,1-3.37-.48,5.49,5.49,0,0,0-2.4.24,7.08,7.08,0,0,1-3.84-.48c-.15-1,.09-2.26-1.45-2.64a18.83,18.83,0,0,0-4.56,1h-1.92a2.46,2.46,0,0,1,1-1,3.15,3.15,0,0,0-.24-1.2,24.67,24.67,0,0,0-6.25,0,7.08,7.08,0,0,0-1.92-2.65V2.64c-.37.19-.65.07-1.2.24l-.72.48H99.47V3.6c-1.46.39-3.4-.18-4.57.24l-.24-.72,1.68-.48v-1c-1.82.06-2.5.79-3.84,1.2H88.41a6.15,6.15,0,0,1-2.64.24,8.53,8.53,0,0,0-3.36-.24v.24H80.49L80,2.64h-.71V2.4c-1.3-.39-2.82.27-3.61.48l-5.29.24c-.32.1-1.53.32-1.92.48,0,0-.92.71-1,.72h-.72v.24h-1.2v.25l-2.4.24v.24H59.1c-1.19.32-2.89.63-4.08,1L50,6.73V6.49h-1.2v.24H47.33l-.24.48H45.65V4.81c-.27-.55-2-1.07-2.64-1.45-.08-.16-.16-.32-.25-.48l-1-.24c-.19-.12-.49-.58-.72-.72H40.6c-.29-.19-.66-.77-1-1C39,.52,38.43.65,38,0c-.54.08-.62,0-1,.24V.48h-.48V.72l-2.64.48c-.13.69-.44.66,0,1.2a2.93,2.93,0,0,1-.72,2.16h-.49c-.09.66,0,1.83-.24,2.17-.82.55-.13-.25-1.2,0V7C30,7.25,29,6.36,28.35,6h-.48c-.52-.35-.42-.73-1.2-1,.49-1.5,1.21-.18,1-2.17l-1.2-.24v.48a2.27,2.27,0,0,0-1.68,1.2L21.38,3.6c-.15-.47,0-.2-.24-.48a3.82,3.82,0,0,0-3.84,0c-1.26.76-1.61,2.4-2.65,3.37V8.65c.21.57.76.71,1,1.44.66.2.52.05.72.72H13a1.12,1.12,0,0,0-1-.24l-.48.48c-.43.18-1.56.38-1.92.48L5.05,12v.24H4.32l-.72.48H2.88V13H0L4.08,29.31a22.25,22.25,0,0,0,6-1.44h1v-.24h1v-.24h1l.72-.48H14.9a9.87,9.87,0,0,1,2.88-.72c.54,2.32,2.69,2.59,3.6,4.56,1.64-.07,2.52-.68,4.09-1,.63.6,1.69.69,2.4,1.2s1.07,2,1.68,2.65c-.09,1.61-.76,4-1.68,4.8v1.44c.14.28.75.32,1,.48l1.44,1.93V43h.24c.55,1.75-.81,3.51-.72,4.08l.48.72v1l.48.72v1.2H31c.35,1.25-.44,2.23-.48,2.89h.24L31,55.26c.2.46.72,1,1,1.44a26.8,26.8,0,0,0,5.53.48l1.68,1.44c.29.41.07.59.48,1a2.7,2.7,0,0,1-.24,1.69c-.29,1-1.08,1-1.68,1.68-1.66,0-3-.18-3.6-1.2a3.58,3.58,0,0,0-2.17.48c.24,1.26-.17,3.53.24,5h.24v1.2a17.34,17.34,0,0,0,1,1.93,3.8,3.8,0,0,0,1.45-.48A5.54,5.54,0,0,0,35.08,68c.86-.32,2.13-.51,2.64-1.2s.45-1.6,1-2.16c.24-.26,1,.39,1.44.72L42,66.79v.48a6.28,6.28,0,0,0,1.45,1.92l-.24,2.89A6.84,6.84,0,0,1,43.49,75,13.43,13.43,0,0,1,42,77.36h-.48c-.15.47,0,.21-.24.48a6.63,6.63,0,0,0,1.93,3.37A2,2,0,0,1,42,82.89c.12.47.65,1.33,1.21,1.2v-.24h.24v.24H44c.18.11.2.34.48.48-.15.6-.41.53-.48.72-.22.57.26.93.24,1.2H44v1.92s.69.92.72,1v.48l.48.24a34.72,34.72,0,0,1,1,3.84h-.24a2.11,2.11,0,0,0-.48,1.2c.64,0,1.12,0,1.44-.24,1.32-.09,1.26-.53,1.92-1.2,2.87-2.92,1.75-4.59.72-8.41V81h-.24v-1.2H49l-.24-1.69h-.24c-.23-.64-.09-1.24-.48-1.68l-.24-.72h-1c.18-1.16.68-1,.72-2.4C50,73,49,74,50,75.44l1.44,1.2c-.2.9-.74,1.09-1,1.68-.64,1.76.66,5.21,1,6.25v1.92h.24l-.24,2.65h.24c.09.4.16.8.24,1.2l.49.24v.48c.29.41,1,.68,1.2,1.2l-.24,3.84h.24l.48,2.65.48.72V104c.34,1.22.82,2.71,1.2,3.85v1l.48.72.24,1.68h.24v1.92a4.48,4.48,0,0,0,1.44,3.36c0,2.18-.88,2.25-1.44,3.61L57.9,124c.47.15.21,0,.48.24,1.47.11,3.58-.58,2.41-1.92,0-1-.12-1.23-1-1.44l.24-2.4-.48-.72a7.08,7.08,0,0,1-.24-3.37c.71-.19.6-.38,1.45-.48.14-1,.45-.86,1-1.44.88,0,2.39-.18,2.88.24.26.28,1.25,2.88,1,3.61l-.48.23c-.33.68,0,.52,0,1.21a2.06,2.06,0,0,1,1.2.72c.64-.1.9-.11,1.2-.48v-.48l.72-.24c.31-.25.28-.67.48-1s.48-.33.72-.48l.24-1.45a5.9,5.9,0,0,1,1.93-1.92l-.48-2.64h.24v-1.2h.24a11,11,0,0,0-1-3.37c-.27-.91-.65-.67-1.21-1.2h-.24v-.24c0-.09.16-.68.24-1h.24l-.24-3.36h.24l.24-1.68c.27-.21,0,0,.24-.24a3.35,3.35,0,0,1,2.41.48c.8.55.53,1.19,1,2.16,0,.09.66.86.72,1l.24,1a8.14,8.14,0,0,1,.72.72V106a3.67,3.67,0,0,0,1.68,1.69v2.16l-.48.48V111h-.24v1.92a1,1,0,0,0-.24,1h.24l.24,1.44a7.14,7.14,0,0,1,.72.73,4.3,4.3,0,0,1-.24,2.16l.24,2.4c-.09.54-.8,1.34-.48,2.4h.24c.25.71.11,1.35.48,1.92l.72.48v.49l1,.72v1.92H78.8c.16.72.32,1.44.49,2.16l.47.24v.48H80c.17.48.33,1,.49,1.44h.24l.24,1.45c.2.6.5,2,0,2.64a5,5,0,0,1-.24,1.68c-.86.07-2,.55-2.65,0a2.34,2.34,0,0,1-1.44-.48v-1.68c.23-.48,1.87-1.25,1-2.41-.08-1.72-.16-.82-.72-1.68l-.24-1-.48-.24v-.48c-.06-.11-.68-.86-.72-1l-.24-1.44-.48-.72.24-1.44h.24c.2-.81-.29-1.22-.48-1.69-.31-.13-.52-.07-1-.24V124H72.32c-.25-.1-.07-.33-.72-.48l-.48-1.44c-.64,0-1.13,0-1.45-.24a2.9,2.9,0,0,0-2.88,2.4c-.63.8.08,2.56.48,3.13L70.15,130v.48l.73.48v.48l.48.48v.72h.24v3.13h.24l.48,1.44h.24v1.44h-.24c-.18.74.15,1.15.24,1.68.6.11,1.87.34,2.4.48l2.64-.24v.24c1,.23,2.54-.18,2.89,0h1a12.4,12.4,0,0,1,1.92,3.37v.24h-.24a4.5,4.5,0,0,0,.48,2.4c0,.45-.82.9-.48,1.68l1.2,1c.24.39-.16.3.24.72,0,1.52-.66,1.7-1.2,2.65.76.63.89,1.52,1.44,2.16-.15.93-.3.67-.72,1.2h-.24l.24.72h-.24a9.52,9.52,0,0,1-.48,1l-1.92.48-.24-.48H79.76c-.68.2-1.17.77-1.92,1-.42,1.46-.9.6-1.92,1.2-.29.18-.43.74-.72,1-.51-2.68-2.59-2.62-5.29-2.4a16.44,16.44,0,0,0,.73,3.36c.54,2-.29,4.1.48,5.77.28.63,1.09.92,1.44,1.44s.22,1.11.48,1.68h.24c.22.47.3.8.48,1.21h1.68l.72,3.12h-.48v-.48c-.52.07-.45,0-.72.24-.67.19-.69.42-1.2.72-.09,2.23.68,2.5,2.88,2.4.21.27,0,0,.24.24v1l-.48.24c-.05.18.64,3.06.72,3.37v1.92h.24v1h.24l-.24.72h.24c.27,1.05.13,1.63.48,2.64l.48.72v.73h.24l1,6.24.49.72c.16.8.31,1.6.48,2.41H81c.08.32.16.63.24,1l.48.48v.72l.48.48.24,1.44c0,.09.66.85.72,1l.24,1,.48.24.24,1,.48.24v.48c.12.22.61.75.72,1v.48h.24v.49L86,210c.23.34.26.85.48,1.2l.48.24v.72l.48.48v.48s.46.44.48.48v.48l.48.24a25.07,25.07,0,0,1,1,2.4h.24v.72l.48.73v.72h.24v.72l.48.48v.72l.48.72v.72h.24l.72,4.56,1.68,5c-.58.15-.53.25-1,.48a3.69,3.69,0,0,0,.48,2.4c.27.26,0,.1.48.24.18-.23.3-.24.48-.48h.24c.14-.45-.15-.33-.24-.48v-.72h.24a4.73,4.73,0,0,0,1,1.92v.48l.48.24c.31.59.21,1.3.48,1.93a50.71,50.71,0,0,1,2.17,5.52l.24,7.21c0,.27.24,2.64.24,2.64,0,.19-.65.11-.48,1H99c.24,1.07,0,2.51.24,3.37v1.68h.24v1h.24v1H100v1h.24l.24,2.16c.43,1.25,1.2,2.64,1.68,3.85l.24,1.44c0,.09.67.86.72,1l.24,1,.48.24v.48l.48.24v.48a8.15,8.15,0,0,0,.72.72h.48c.1.06.9.7,1,.73h1v.24h.71c.15.07.26.35.49.48a21.38,21.38,0,0,0,.72,5.28v2.4c.12.45.06,1.53.24,2.17h.24l.24,6.24h.24l.24,3.61c.37,1.23,1,2.69,1.44,3.84l.24,1.44h.24c.41.85.52,1.57,1,2.4h.24l.48,1.45,1.92,1.68c.22.3.27.88.48,1.2l.48.24c.17.48.33,1,.49,1.44a25.92,25.92,0,0,1,1.68,3.13l.48,2.4a16.51,16.51,0,0,1,1.44,3.36c-.52.08-.45,0-.72.24h-.48c.41.7.8.73,1.44,1.2,1.15.85,1.32,2.09,3.36,2.17l1.44,4.8c.37.59,1.35,1.17,1.69,1.68l.72,2.41c.12.23.6.52.72.71l.48,1.45.48.24V333c0,.06.7.9.72,1v.72h.24c1,2.84,0,6.69-1.68,7.69l.48,1.68a8.15,8.15,0,0,0,.72.72h.48c.14.1,1.84,1.8,1.92,1.92.29.41.07.59.48,1a5.78,5.78,0,0,1-1.44,3.37c.11,2.31,1.13,1.73,1.92,2.88.53.76.16,1.15,1.2,1.44,0,1.13-.88,1.8-.48,3.13a10.34,10.34,0,0,0,2.65,3.6l.72.48.24,1h.24c.36.68.38,1.23.72,1.92h.24v.72l.48.48,1.44,5.29.48.48v.72c0,.1.67.86.72,1l.24,1c.19.3.78.67,1,1s.17.87.48,1.21a2.18,2.18,0,0,1-.48,1.2h-1.44l-.24-.72c-.42-.52-1.07-.58-1.44-1.2-.15-.23-.34.08-.24-.25l.48-.48-.24-1.44c-.76-.21-1.62-.72-2.4-1l-2.16-.24-.72-1c-.58-.37-1.3-.13-1.93-.48-.25-.14-.4-.54-.72-.72.08-.52,0-.45.24-.72l.24-.72,1.2-.24,1.69-1.2c.15-.47,0-.21.24-.48v-1.69l-.48-.24a16.4,16.4,0,0,1-1-1.44l-1-.72-.24-1-.48-.24v-.48h-.24l-.48-1.44h-.24v-.72h-.24l-.72-2.65-.48-.24v-.48c-.47-.58-1.69-.57-2.4-1-.36-.19-1-.94-1.44-1.2a3,3,0,0,1,1-2.4l.48-.24v-.72h.24v-.48c.11-.18.34-.23.48-.48s.34.08.24-.24l-.48-.73-.24-1.68-1-.72-.24-1-.48-.24-.24-1.2-.49-.48v-.72h-.24v-.72c-.07-.15-.35-.25-.48-.48h-1l-.24-1c-.75,0-1.76.1-2.16-.24-1.32-.42-.54-1.09-1.2-1.93-.61-.59-1.33-.41-2.16-.24a5.12,5.12,0,0,0,.72,3.13,2.45,2.45,0,0,1-3.13,1.68A7,7,0,0,1,112,340v-.48c-.58-.77-1.83-1.12-2.4-1.93-.42-.58-.48-1.4-1-1.92a5.37,5.37,0,0,1,.72-3.12l.48-.24-.24-1.69c-1.85,0-2.18-.06-2.89-1.2-.23-.37-.15-.73-.48-1-1-.72-2.75-.53-3.6-1.44-.21-.23-.27-.73-.48-1,.17-1.25.54-.76,1-1.44.26-.42-.2-.29.24-.72,0-.57,0-.68-.24-1-.48-1.7-2.69-1.62-3.6-2.88-.26-.28-.1,0-.24-.49,1.86-1.57,2.44-4.27,1.44-7.2v-1c-.26-.51-1.66-1.21-1.92-1.93-.44-1.19.32-2.52.48-3.36a7.7,7.7,0,0,0-2.17-1.2c-.27-.26,0-.1-.48-.24-.21.27,0,0-.24.24a18.22,18.22,0,0,0,.72,3.6l-.24,3.6.48.73v1h.24c.18.84-.52,1.21-.72,1.68-.49,1.16-.49,4.25.24,5s1.29.13,2.41.49a10.92,10.92,0,0,1,1.92,1.2,3.69,3.69,0,0,1-1.92,3.6l1.44,4.33.48.24c.21.32.26.88.48,1.2l.72.48c.21.3.27.9.48,1.2l1,.72,1.44,4.32v1a24.58,24.58,0,0,1,1.2,2.41c.47.15.21,0,.48.24.72.48,1.14,2.05,1.21,3.12a5.28,5.28,0,0,1,1.2.48c.8.84.56,2.65,1.2,3.61.2.3.7.28,1,.48a12.37,12.37,0,0,1,1.68,1.92V352a22.53,22.53,0,0,1,1.68,3.6l.24,1.68.48.48v.73c0,.1.66.84.72,1v.48l.48.24v.48l.73.48v.48H118l.48,2.64c.23.52.9.78,1.2,1.2v.48l.48.24c.42.68.32,1.71.72,2.41l1.92,1.68c.41.59.38,1.22,1,1.68l.72.24.48,2.4h.24v.72l.48.72c.75,2.12.51,4.84,2.65,5.53.26.94,2.54,3.13,3.36,3.6a2.49,2.49,0,0,1-1,1,5.88,5.88,0,0,1,.72,1.44c1.41.32,1.45,1.41,2.16,2.4l1,.72a14.12,14.12,0,0,0,1.21,1.68l.72.48v1c.16.45.53,1.18.72,1.69.6,0,.9,0,1.2-.24h2.88c.52.28.6,1.69,1,2.16s.8.26,1.2.48v.24c1,.49,2.81.27,3.61,1h1c-.62-1.57-.36-2.12,0-3.6a15.85,15.85,0,0,0,2.16-1,6.24,6.24,0,0,1,2.16.48v.25a10.11,10.11,0,0,0-2.16,1c-.3,1.48-.26,3.44.72,4.32.45,1.59,2.13,1.35,3.6,1.92,1.8.7,4,1.11,6,1.68,1.73.49,4.19-.14,5.77.49.07,0,.87.66,1,.72h.48l.48.72h.48l.24.48,1,.24V407l1.44.48v.24c.82.36,5.06,1.54,5.77,1l.72-.24c0-.57,0-.68-.24-1a23.49,23.49,0,0,0-2.16-1v-.24c-1.17-.44-2.65.29-3.61-.24l-1.2-1.44v-.49a14.47,14.47,0,0,0-2.16-1.44l-2.4-2.88v-.48l-.48-.24v-.48a15.14,15.14,0,0,0-3.37-2.64c-.47-.25-1.07-.17-1.44-.48s-.09,0-.24-.49a4.7,4.7,0,0,0,1-1.2l12.74-.72c.15.58.27.39.48.72v.48l.48.24v.73l.48.48v.48l.48.24v.48l2.4,2.16v.48l.48.24c.37.6.18,1.23.48,1.92,0,.1.66.85.72,1v.48l.48.24v.48l.72.48c.47.72.49,2,1.2,2.41a10.28,10.28,0,0,0,1.93.48c-.23-1.4-1.5-2.36-2.16-3.37-.23-.33-.26-.86-.49-1.2l-.48-.24V402l-.48-.24v-.48c-.2-.3-.76-.66-1-1v-.48c-.2-.3-.76-.66-1-1v-.48c-.2-.3-.76-.66-1-1v-.48c-.8-1.2-2.29-2.51-2.64-4.09.88,0,2.39.18,2.88-.24h.24l-.48-1a3.41,3.41,0,0,0,1.92-2.16,5,5,0,0,1-2.4-1c-.27-.21,0,0-.24-.24l1.44-.48v-.24a.77.77,0,0,1,.72.24s1.73-.19,1.92-.24v-.24l1.44-.24c.56-2.21,2.52-3.17,3.61-4.81l.48-1.44.48-.24v-.72l.72-1,.24-2.89h.24l.48-1.44c.75-1.36,1.12-.82.72-2.88-2.14-.39-1.65-.61-2.88-1.68,0-2.45.83-1.76,1.44-3.13l-.48-1.44c.29-.25.42-.74.72-1h.48c.71-.49,1.39-1.24,2.17-1.68-.08-1.09-.34-1-.73-1.68h-1.44c.26-1.64.69-.78,1.68-1.44l1.93-1.93c.53-.92-.71-1.51-.25-2.88a20.81,20.81,0,0,1,2.41-3.36c.39-.25.3.16.72-.24.25-.27.1,0,.24-.48l-1.92-1c-.15-.47,0-.21-.24-.48.21-2.71,2.16-2.66,3.84-3.85.13-.09,2.09-2,2.16-2.16l.24-1c.38-.69,1.7-2.65.72-3.85a2.28,2.28,0,0,0-.48-1.44c-1.69.14-.61.11-1.2,1.2l-.72.48v.73a9.78,9.78,0,0,1-.72.72c-.66.45-1.41.38-1.92,1-.21-.2-.28-.52-.48-.72.32-1.07,1.42-1.57,1.68-2.65s-1.06-2.14-.48-3.6l.48-.24a10.33,10.33,0,0,0,.24-2.16,2.93,2.93,0,0,0,2.16-2.17,4.51,4.51,0,0,1-2.4-.72h-.24c-.12-.35.35-.73.48-1.2,1.06-.3,1.18-1.14,1.92-1.68h.48l1-1.2a7.6,7.6,0,0,0,1.93-1.44c.41-.58.49-1.2,1-1.68.85-.89,2.07-1.22,2.4-2.65-1.57-.27-3.71.22-4.81-1-.66-.2-.52-.05-.72-.72a10.14,10.14,0,0,1,2.89-.48l1.92.24v-.24l1.2-.24c.13-1,.38-.67.72-1.2l.24-1,.72-.48.24-1.44c.66-1,3.41-2.31,4.81-2.65.15-.61.4-.51.48-.72l-.24-2.88c.31-.93,2-1.63,2.4-2.4l.24-1.2,1-.73,1.2-1.44c1.93-1.36,4.67-1.9,7.45-2.4l.24-2.4c-.15-.5-.95-1.38-.72-2.16,0-.15.64-.63.72-.72A9.39,9.39,0,0,1,228,291c.59-.31,1.23-.3,1.69-.72h1l1,2.16h1.2c.27-1.62,1.06-1.08.24-2.88l-.72-.24c.13-1.94,1-1.57,1.68-2.64.32-.49.23-1.11.48-1.68,0-.05.7-.92.72-1,.8-1.84.48-3.05,2.16-4.08-.19-2.32,0-4.3-1.68-5.28.21-1.54,1.16-1,2.17-1.69.36-.24.51-.71.95-1q.13-1.2.24-2.4c-.11-.41-.79-1.08-.47-1.92l.47-.24v-1.68l.73-.48v-.48l.48-.25.24-1.2h.24a3.66,3.66,0,0,0-.48-1.92l-.48-.24c-.17-.52.62-1.28.72-2.16,1.63-.36,6.06-4.19,6.48-5.77.86-1,.05-4.17.48-5.76.85-3.13.12-7.45,1-10.58v-2.4h.24l.24-1.2.48-.48.72-3.12h.24V229l.48-.72v-1h.24v-.72h.24l.24-1.68.48-.72v-.72l.48-.24a9.76,9.76,0,0,0,.48-1.68h.24v-1h.24v-1h.24v-1H254v-1h.24V217c.74-1.89,1.42-4.34,2.17-6.24a24.33,24.33,0,0,1,.71-2.65c.52-.94,1.63-1.65,2.17-2.64,1,0,1.08.12,1.44.72a3.16,3.16,0,0,0,2.4-1l.24-.48h.48c.12-.07.86-.68,1-.72l1.45-.24v-.24h.48a5.57,5.57,0,0,0,1-1.44v-1.2c.24-.64.89-1.25,1.2-1.93a5.85,5.85,0,0,1,2.64-.24l.48.48a.75.75,0,0,0,.72-.24l2.64.24c.47.27.56,1.16,1,1.45.68.48,3.57.18,4.08-.24,1.09-.08,1-.34,1.68-.73v-.72c-2.28-.26-4.07-1.57-6.24-2.16h-1.69V197a6.87,6.87,0,0,1-4.08-1h-.24c.25-.88.77-.85,1.2-1.44v-.48a4.62,4.62,0,0,1,2.16-1.2c1.33-.39,2.34.2,3.37-.48l2.4-2.65c-.35-1.75-1.06-3.53-2.4-4.32a4.74,4.74,0,0,1,1.68-4.08q.36-.26.72-.48c.38-.6-.06-1.39.24-2.17s1-.83,1.2-1.68a4.17,4.17,0,0,0,1.68-.72,6.9,6.9,0,0,0,0-2.64l-1.68-.72c0-.57,0-.68.24-1,.61-2.12,4.16-1.29,5.53-2.65a2.26,2.26,0,0,0,.48-1.68l-2.16-.72c-.53.06-1-.07-1.21.24v.72c-.24.33-.79.28-1.2.48v.24c-1.13.5-2.28.11-3.6.48v.24h-1.2v.24l-1,.24-.24.48h-.49l-.71,1-1.45.24a24.52,24.52,0,0,0,.48-3.84c1.09.05,1.83.7,2.65.48.66-.18,1-.75,1.68-1,.59-2.21,3.41-4.78,5.28-5.77.6-.31,1.31-.12,1.92-.48.09-.16.17-.32.25-.48,1.38-1.3.08-1.07.72-2.4l2.16-2.16c0-1.45-.51-2-1.68-2.16a4.2,4.2,0,0,1,.72-2.65l.48-.24c.26-.55-.19-.7.24-1.2a2.26,2.26,0,0,0-.48-1.2,4.26,4.26,0,0,0-2.88.72c-.7.44-.69,1.1-1,1.92-.89.23-4.12,1.74-5.28.72-.67-.19-.7-.42-1.2-.72v-.48H277l-.24-1.2a17.41,17.41,0,0,1-2.89,0c.29-2.21,1.64-3.6,2.41-5.28ZM17.54,7.93c-.23-.43-.34-.38-.48-1h-.24c-.16-.48.33-.69.48-1l1.2-.24a8.35,8.35,0,0,1,.24,1.92l-1.2.24M212.39,45.17a15.12,15.12,0,0,1,6-.72c-.39,1.26-2.34,1.24-3.36,1.92l-.72,1c-.45.25-.51-.14-1,.24-.64,0-1.12,0-1.44-.24-.35-.52.19-1.56.48-2.16m-11-12a8,8,0,0,1,2.88,0L204,34.6c-.78.2-1.92,1.08-2.64.48l-.73-.24a3.22,3.22,0,0,1,.73-1.68m-6.73,1.92.72-.24v.72c-.47.15-.21,0-.48.24h-.24ZM146.56,23.79a5.17,5.17,0,0,0,1.92.48v1.2l-2.16.48a2,2,0,0,0-.72-.48c.14-1,.54-1,1-1.68m-13.22-7.21a9.55,9.55,0,0,1,1.68-.72c.58-.41.21-.08,1,0l.24,1h.48v.24a2.23,2.23,0,0,0-1.2.48,3.66,3.66,0,0,1-2.17-.48Zm-3.12,3.12h1.68v.24a1.06,1.06,0,0,0-.48.48,3,3,0,0,1-1.2-.24Zm26.91,379.13a8.81,8.81,0,0,1-1.92-.48c-.08-.4-.17-.8-.24-1.2.52.07.45,0,.72.24,1.09.07,1,.33,1.68.72l-.24.72m34.6-59.34-.49.24v-.49H189.8a3.08,3.08,0,0,1,.48-1l1.69.24a3.1,3.1,0,0,1-.24,1m23.06-72.8-.72.24v-.24h-.24c-.11-.12.42-.39.48-.48l.48.24Zm15.62,16.82a4,4,0,0,0-1.45.23,4.83,4.83,0,0,1-.48-1.68,14,14,0,0,0,1.93-.48c.21.27,0,0,.24.24a4.81,4.81,0,0,1-.24,1.69m5.28-29.08a3.75,3.75,0,0,0-1,.48,5.25,5.25,0,0,1-1.92-.24,2.62,2.62,0,0,1,.24-1L235,253h1.44a16.1,16.1,0,0,0-.72,1.44m1.68-74.72-.48,2.89c-1.49,4.27-2.59,9.2-4.08,13.45v1l-.48.72v1h-.24v1h-.24v.73l-.48.72-.24,1.92h-.24v1h-.24l-.24,1.68-.48.72-.24,1.92c-4.11,11.75-6.45,24.78-10.58,36.52-.15,1-.32,1.93-.48,2.89-1.38,3.93-2.46,8.57-3.84,12.49l-.48,2.88h-.24l-1,4.33h-.24v.72l-.48.72v.72h-.24l-.48,2.88h-.24v.72c0,.05-.7.91-.73,1-.07.41-.15.81-.23,1.21h-.24v.72H210v.72l-.48.48-.24,1.44-.48.48v.72c0,.06-.69.9-.72,1l-.24,1.2h-.24l-.24,1.45h-.24l-.24,1.2-.48.48v.72s-.7.9-.72,1v.72h-.24v.72l-.48.48-.24,1.44c0,.06-.7.91-.72,1v.73l-.48.47-.24,1.21H203l-.24,1.44-.48.48v.72c0,.06-.7.9-.72,1v.72l-.48.48c-.08.48-.16,1-.25,1.44l-.48.48V301l-.48.48v.72h-.24l-.24,1.21-.48.48v.72l-.48.48-.24,1.2H198v.72h-.24v.72c-4.73,10.8-8.77,22.35-13.45,33.16l-.24,1.44-.48.48c-.3.67-.19,1.25-.48,1.92l-.49.48c-.29.67-.18,1.26-.47,1.92l-.49.48v.72l-.48.48v.73h-.24l-.24,1.2-.48.48V352l-.48.48-.24,1.44c-1.57,3.64-3.2,7.66-4.8,11.29v.72l-.48.48-.24,1.45-.48.48L172,372.64h-.24c-1-2.51-1.67-5.22-2.64-7.69l-.48-2.16c-.93-2.18-1.77-5-2.64-7.21l-.24-1.44c-.89-2.27-1.76-4.94-2.64-7.21-.17-.72-.33-1.44-.49-2.16l-.48-.48v-.72h-.24l-.24-1.68c-1.38-3.59-2.58-7.78-4.08-11.3l-.24-1.68h-.24v-.72h-.24v-.72h-.24v-.72l-.48-.72-.24-1.44-.48-.48v-1c-.39-1.1-1-2.52-1.44-3.61-.09-.48-.17-1-.25-1.44-1-2.44-1.91-5.45-2.88-7.93L150.4,308c-3.16-8.07-5.49-16.95-8.65-25l-.24-1.68c-1.15-3-2.2-6.39-3.36-9.37v-.72h-.24v-.72l-.48-.72v-.72c-1.15-2.67-2.06-5.93-3.13-8.65l-.48-2.16c-3-7.56-5-16.12-8.17-23.55l-.72-3.12c-2.29-6.49-4.63-13.46-7-19.94l-.24-1.68c-1.79-4.21-3.13-9.17-4.81-13.46v-.72l-.48-.72v-.72h-.24v-1H112v-.72c-2-4.69-3.41-10.11-5.29-14.9v-.72c-.42-1.09-1-2.51-1.44-3.6L105,172c-2.54-6.51-4.42-13.7-7-20.19v-.72c-.42-1.09-1-2.51-1.44-3.6l-.24-1.44c-2.54-6.51-4.41-13.68-7-20.18v-.73c-.43-1.08-1-2.51-1.45-3.6l-.24-1.44c-.61-1.56-1.31-3.48-1.92-5l-.48-2.16c-6.6-15.11-13.22-30.63-19.94-45.65-.3-.66-.19-1.26-.48-1.92,0-.06-.7-.9-.72-1v-.72c0-.06-.7-.9-.72-1V62c0-.06-.7-.9-.72-1V60.3c0-.06-.7-.89-.72-1v-.72h-.24c-.09-.32-.16-.64-.25-1h-.23v-.72c0-.06-.7-.9-.73-1v-.72c0-.06-.69-.9-.72-1v-.72c0-.06-.69-.9-.72-1V51.9h-.24c-.08-.33-.16-.64-.24-1h-.24v-.73c0-.06-.69-.9-.72-1v-.72s-.47-.46-.48-.48l-.24-1H56.7c-.29-.66-.19-1.26-.48-1.92H56l-.24-1s-.48-.47-.48-.48c-.57-1.27-.63-2.32-1.2-3.61h-.24l-.24-1-.48-.48c-.58-1.27-.63-2.31-1.21-3.6l-.48-.48c-.27-.53-.23-1.14-.48-1.68,0,0-.47-.47-.48-.48l-.24-1H50c-.29-.65-.18-1.26-.48-1.92h-.24l-.24-1h-.24v-.72c0-.06-.69-.9-.72-1v-.72s-.47-.47-.48-.48l-.24-1h-.24c-.34-.75-.2-1.15-.48-1.93h-.24a22.18,22.18,0,0,1-.24-3.6,31.89,31.89,0,0,1,7.21.48c1,.26,2.55,0,3.36.24,1,.28,2.72,0,3.6.24H63a34.47,34.47,0,0,1,3.84.24v.24h3.36c2,.54,5,.18,7,.72h3.37c.88.24,2.55,0,3.6.24,2.88.78,7,.18,9.85,1l26.43,1.69.72.48h1V25h.72l.72.48h1c4.06,1.43,8.71,2.65,12.74,4.08.85.3,1.78.18,2.64.48v.24l2.4.48V31l1.68.24v.24l1.69.24c1.12.4,2.72,1,3.84,1.45h1v.24h.72l.72.48h1c4,1.43,8.7,2.64,12.74,4.08h1v.24h.72l.72.48h1v.24l4.09,1v.24l2.4.48c1.12.4,2.72,1,3.84,1.45l5.05,1.2c5.39,1.91,11.43,3.35,16.82,5.28l5,1.2V50l2.4.48c1.12.4,2.73,1,3.85,1.45h1a7.3,7.3,0,0,0,2.16.72c2,4.25,3.57,8.59,5.53,13h.24l.24,1s.47.47.48.48v.72c0,.06.69.91.72,1v.73H223c.08.32.16.63.24,1l.48.48v.72c0,.06.69.9.72,1v.72l.48.48c.27.52.24,1.14.48,1.68h.24l.48,1.44s.48.47.48.48v.72c0,.06.7.9.72,1v.72h.24l.24,1H228v.72c0,.06.7.9.73,1v.72H229c.09.32.17.64.25,1,0,0,.47.47.48.48v.72h.24l.24,1h.24V87c0,.06.69.9.72,1v.73c0,.09.67.86.72,1l.24,1.2s.47.46.48.48c.27.52.24,1.14.48,1.68h.24l.24,1s.47.47.48.48v.72c0,.06.69.9.72,1v.72c0,.06.7.91.72,1,.24.54.21,1.15.48,1.68l.48.48.24,7.45h.24v4.32c.64,2.36.09,5.83.72,8.17.38,1.38-.06,3.45.25,4.56v5c.63,2.39.06,6,.72,8.41.37,1.38-.06,3.45.23,4.56v4.09c.67,2.49.06,6.15.73,8.65v4.32c.27,1-.08,2.89.24,4.09a23.13,23.13,0,0,1,.24,3.84l.24,3.12c-.88,2.89-1.9,6.28-2.89,9.13M238.58,56c-.75.67-1.82.36-2.65.24l-.72.24a1.67,1.67,0,0,0-.72-.72c.13-1.75,1.73-3.77,2.4-5.29a5.26,5.26,0,0,1,3.13.72,2.56,2.56,0,0,1,1,2.41c-.89.78-1.08,2-2.4,2.4m7.68-3.6s-.85.07-.48-.24H246V51.9h1.2c-.22.21-.72.27-1,.48m13,97.78v-.48h.48v.48Zm7,44.21c-.27.21,0,0-.24.24h-.25c.29-1,1-1.54,1.2-2.64.64.81-.38,1.75-.71,2.4m1.68-3.84h-.24a7.58,7.58,0,0,0,.72-1.93h.24c0,1.23-.3,1.22-.72,1.93m8.41-31a15.84,15.84,0,0,1,1.92.48,1.65,1.65,0,0,1-1.44,1.2v.24a4.38,4.38,0,0,1-1.45-.72c-.4-.39.61-.81,1-1.2m-2.41,17.78c-.37,1.18-1.34.94-2.4,1.44a6.34,6.34,0,0,0-1.44,1.2h-1a6.18,6.18,0,0,1,.72-1.68l.48-.72h.48c0-1.46.2-2.46,1-3.12.61-.42,3.31,1.63,2.16,2.88m-1.2-91.54c-.23-1.27-.29-3.9-1.2-4.56v-.48c1.74.77,2.22,2.43,4.33,2.88.15.47,0,.21.24.48-.13.91-.37.85-.73,1.44Z"/><path class="cls-1" d="M169.86,397.39c.38,1.81,1.34,1.75,2.16,2.88.17.23.22.68.48,1,.65.67,1.26.73,1.45,1.92a2.11,2.11,0,0,0-.48.72l-1.93.24c-.5-2.37-2.54-3.48-2.88-6,.51-.3.53-.53,1.2-.72"/><path class="cls-1" d="M186.68,410.36a6.26,6.26,0,0,1,1.92,3.12c-.44.26-.59.71-1,1h-.48c-1.48,1-3.42,2.37-5.53,2.64a4.08,4.08,0,0,1-.24-1.44h-.24c0-.08.23-.61.24-1l3.37-2.17c.67-.81-.34-1.22,1-1.68.23-.2.73-.27,1-.48"/><path class="cls-4" d="M120.39,452.81a.7.7,0,0,1,.48-.23,3.76,3.76,0,0,1,1.65.48,5.23,5.23,0,0,0,2.36.47,2.8,2.8,0,0,0,2.18-.92,3,3,0,0,0,.83-2,7.21,7.21,0,0,0-.48-2.36c-.32-.9-.71-1.86-1.18-2.88s-1-2.07-1.52-3.16-1.07-2.14-1.53-3.16-.86-2-1.18-2.88a7.1,7.1,0,0,1-.48-2.31,6.94,6.94,0,0,1,.68-2.43,17.74,17.74,0,0,1,1.8-3.18,13.3,13.3,0,0,1,2.61-2.78,4.87,4.87,0,0,1,3.08-1.18c.24,0,.58,0,1,.08a8.65,8.65,0,0,1,1.33.25,5,5,0,0,1,1.15.45.8.8,0,0,1,.5.67,1.68,1.68,0,0,1-.37,1.31,3.49,3.49,0,0,1-1.78.35c-2.21.07-3.8.57-4.77,1.53a4.78,4.78,0,0,0-1.45,3.53,8.85,8.85,0,0,0,.85,3.28c.57,1.33,1.2,2.74,1.88,4.27s1.31,3.09,1.88,4.71a14,14,0,0,1,.86,4.63,11,11,0,0,1-.26,1.66,9.92,9.92,0,0,1-.92,2.58,8.44,8.44,0,0,1-1.81,2.38,4.13,4.13,0,0,1-2.93,1.05,5.74,5.74,0,0,1-1.15-.15,9.47,9.47,0,0,1-1.38-.4,9.76,9.76,0,0,1-1.2-.53,1.34,1.34,0,0,1-.63-.52c-.1-.3-.18-.6-.25-.88a3.84,3.84,0,0,1-.1-.93,1.07,1.07,0,0,1,.22-.77"/><path class="cls-4" d="M140.87,455.64a.8.8,0,0,1-.75-.33,1.69,1.69,0,0,1-.2-.93c0-1.73.05-3.54.15-5.41s.15-3.86.15-6V440.1c0-1,0-2.05,0-3.06s0-1.94-.07-2.8-.07-1.63-.1-2.26a1.65,1.65,0,0,0-.33-1,4.44,4.44,0,0,0-.75-.75c-.28-.22-.54-.43-.75-.63a.91.91,0,0,1-.33-.7,1.23,1.23,0,0,1,.23-.5,5.1,5.1,0,0,1,.6-.73,4.34,4.34,0,0,1,.88-.67,2,2,0,0,1,1.05-.3,3.62,3.62,0,0,1,1.1.2,11.21,11.21,0,0,1,1.26.47,6.73,6.73,0,0,1,1,.58c.29.2.43.38.43.55a3.58,3.58,0,0,1-.38,1.3,5.66,5.66,0,0,0-.42,2.06c0,1.2,0,2.46,0,3.76s-.06,2.57-.12,3.81h13.33c0-.67.06-1.42.07-2.26s0-1.68,0-2.55a31.47,31.47,0,0,0-.15-3.21q-.15-1.45-.15-2.16c0-.23.16-.45.5-.65a5.89,5.89,0,0,1,1.18-.52,10.76,10.76,0,0,1,1.38-.36,7,7,0,0,1,1.15-.12c.67,0,1,.23,1,.7a.9.9,0,0,1-.12.43,5.53,5.53,0,0,0-.28.55c-.1.22-.22.49-.35.83a6.62,6.62,0,0,0-.35,1.3c-.1.6-.19,1.25-.25,1.95s-.12,1.42-.15,2.13-.06,1.42-.08,2.11,0,1.28,0,1.78l.82-.08.83,0a1.36,1.36,0,0,1,.63.12c.15.09.22.3.22.63a3.7,3.7,0,0,1-.3,1.23q-.3.78-.9.78a1.22,1.22,0,0,1-.35-.06,2.06,2.06,0,0,0-.45-.05c-.34,0-.5.21-.5.61l-.1,9.87a2.5,2.5,0,0,1-.13.73,5.88,5.88,0,0,1-.32.85,3.3,3.3,0,0,1-.48.73.82.82,0,0,1-.63.3,1.47,1.47,0,0,1-1-.25,1.55,1.55,0,0,1-.33-1.06l-.5-11.67c-.9,0-2,0-3.33.07l-4,.18c-1.34.06-2.57.15-3.68.27a15,15,0,0,0-2.38.38,3.12,3.12,0,0,0-.2.92,8.2,8.2,0,0,0-.05.93v8.52c0,1.57-.76,2.36-2.26,2.36"/><path class="cls-4" d="M172.52,436c-.05-1-.07-1.94-.07-2.81,0-.46,0-.86,0-1.18a1.52,1.52,0,0,0-.35-.82,3.48,3.48,0,0,1-.68-1,2.11,2.11,0,0,1-.18-.83,1.61,1.61,0,0,1,.45-.85,7.53,7.53,0,0,1,1.06-1,10,10,0,0,1,1.23-.88,2.08,2.08,0,0,1,1-.37,2.53,2.53,0,0,1,1.26.42c.46.29.7.53.7.73a3.65,3.65,0,0,1-.23,1.23,5.14,5.14,0,0,0-.27,1.48q-.21,2.21-.33,7.39t-.12,14.21a13.34,13.34,0,0,1-.38,4,1.28,1.28,0,0,1-1.23,1,1.61,1.61,0,0,1-.63-.12,1.13,1.13,0,0,1-.47-.63,6.51,6.51,0,0,1-.33-1.53c-.08-.68-.14-1.64-.17-2.86s-.06-2.75-.08-4.61,0-4.1,0-6.74c0-1.77,0-3.16-.08-4.16"/><path class="cls-4" d="M208.25,445.09a3.85,3.85,0,0,0-1.16.17,1.38,1.38,0,0,0-.67.48,3.1,3.1,0,0,0-.45.93,14.85,14.85,0,0,1-.78,1.8l-1.05,2.11c-.35.7-.68,1.34-1,1.93a6.38,6.38,0,0,0-.52,1.32,2.66,2.66,0,0,1-.38,1.13.92.92,0,0,1-.58.33l-1.17.12c-.45,0-.9.1-1.33.13s-.82.06-1.16.07l-.6,0a.39.39,0,0,1-.37-.28,1.17,1.17,0,0,1-.13-.52,2.1,2.1,0,0,1,.13-.93.75.75,0,0,1,.47-.33,5,5,0,0,0,1.53-.72,3.74,3.74,0,0,0,1.28-1.88,13.35,13.35,0,0,1,.88-1.78c.52-1,1.14-2.11,1.88-3.46s1.53-2.82,2.38-4.41,1.64-3.14,2.36-4.66,1.31-2.94,1.78-4.24a10,10,0,0,0,.7-3.11,1.53,1.53,0,0,0-.1-.42c-.07-.19-.15-.39-.23-.63s-.16-.44-.23-.63a1.53,1.53,0,0,1-.1-.42.8.8,0,0,1,.33-.55,4.94,4.94,0,0,1,.78-.58,6.3,6.3,0,0,1,.9-.45,2,2,0,0,1,.7-.18q.3,0,.93.63a5.23,5.23,0,0,1,1,1.48c1.13,2.4,2.33,5,3.6,7.72s2.86,5.78,4.77,9.12q1.8,3.16,3,5c.82,1.24,1.48,2.18,2,2.83s.86,1.1,1.08,1.33.32.4.32.5a.72.72,0,0,1-.37.73,1.81,1.81,0,0,1-.78.18c-.2,0-.49,0-.85-.05l-1.16-.15-1.12-.2a6,6,0,0,1-.78-.2,1.19,1.19,0,0,1-.75-.63,5.51,5.51,0,0,1-.5-1.18q-.15-.45-.63-1.53c-.32-.72-.66-1.44-1-2.18s-.72-1.39-1.05-2-.58-.91-.75-1a6.63,6.63,0,0,0-1.71-.42c-.8-.12-1.67-.21-2.6-.28s-1.86-.11-2.76-.12l-2.1,0c-.81,0-1.45,0-1.93,0m5.83-10.1a9.6,9.6,0,0,1-.77-1.78c-.12-.42-.29-.63-.53-.63s-.19.08-.27.23a3.11,3.11,0,0,0-.25.57c-.09.24-.16.47-.23.71a4.18,4.18,0,0,1-.25.65l-2.61,5.31c-.37.77-.63,1.31-.8,1.63a1.73,1.73,0,0,0-.25.73c0,.23.28.35.85.35H218Z"/><path class="cls-4" d="M247.14,426.67a7.55,7.55,0,0,1,1.53,4.81,9.85,9.85,0,0,1-.38,2.88,8.47,8.47,0,0,1-1,2.21,6.85,6.85,0,0,1-1.31,1.52,5.82,5.82,0,0,1-1.35.91l-3.56,1.6v.1a5.62,5.62,0,0,1,1,.25,1.67,1.67,0,0,1,.71.55q2.1,2.61,4.08,4.64c1.32,1.35,2.5,2.52,3.53,3.48s1.87,1.74,2.51,2.31,1,.92,1,1.05a1.54,1.54,0,0,1-.12.63,2.61,2.61,0,0,1-.53.67c-.3.31-.53.52-.68.66a.7.7,0,0,1-.47.2h-.8a1.9,1.9,0,0,1-.73-.13,1.87,1.87,0,0,1-.73-.63c-.47-.56-1-1.25-1.68-2.05s-1.56-1.84-2.73-3.11L240,443.36a2.56,2.56,0,0,0-1-.73,3.62,3.62,0,0,0-1.18-.17c0,.53-.05,1.12-.07,1.75s0,1.37,0,2.21v8.17a1.28,1.28,0,0,1-.2.72.8.8,0,0,1-.75.33,4.19,4.19,0,0,1-.95-.15,8.16,8.16,0,0,1-1.21-.4,5.22,5.22,0,0,1-1.05-.58.88.88,0,0,1-.45-.68,1.26,1.26,0,0,1,.28-.65l.67-.95a5.83,5.83,0,0,0,.28-1.68c.08-.95.15-2,.2-3.23s.09-2.39.13-3.56,0-2.06,0-2.66v-2.65c0-1.41,0-2.75-.08-4s-.13-2.38-.23-3.28a.65.65,0,0,0-.27-.53,4.66,4.66,0,0,0-.45-.22,1.31,1.31,0,0,1-.43-.33,1.1,1.1,0,0,1-.2-.73,1.5,1.5,0,0,1,.65-1.3,16.47,16.47,0,0,1,2.61-1.53,21.94,21.94,0,0,1,2.56-1,14.27,14.27,0,0,1,2.18-.58,9,9,0,0,1,1.52-.18,5.5,5.5,0,0,1,4.64,2m-8.49,12.88a6.07,6.07,0,0,0,1.17-.5,12.75,12.75,0,0,0,2.21-1.43,10,10,0,0,0,2.1-2.31,5.46,5.46,0,0,0,.93-3.13,5,5,0,0,0-1-3.53,3.23,3.23,0,0,0-2.41-1,4.56,4.56,0,0,0-1.8.4,3.41,3.41,0,0,0-1.51,1.2,7.26,7.26,0,0,0-.25,1.31c-.06.57-.12,1.22-.17,2s-.09,1.5-.13,2.28,0,1.53,0,2.23v2.16c.1.27.4.4.91.4"/><path class="cls-4" d="M255.71,430.58c-.32,0-.64.05-1,.05a1,1,0,0,1-.9-.63,2.93,2.93,0,0,1-.3-1.28,1.54,1.54,0,0,1,.53-1,1.42,1.42,0,0,1,1-.55c.36,0,.8,0,1.3,0l1.83.12,2.58.15c1,0,2.2.08,3.61.08,1.84,0,3.67-.07,5.51-.2s3.68-.2,5.52-.2c.5,0,.75.23.75.7a1.08,1.08,0,0,1-.23.53,6,6,0,0,1-.55.67,3.2,3.2,0,0,1-.73.6,2,2,0,0,1-.75.31c-.5.06-1.08.11-1.73.15l-2,.1c-.67,0-1.32.05-1.95.05h-1.6c-.17,1-.32,2-.43,3.18s-.22,2.46-.3,3.93-.15,3.14-.21,5-.07,4-.07,6.34a6.45,6.45,0,0,0,.2,1.58,3.73,3.73,0,0,0,.68,1.4,3.44,3.44,0,0,0,1.33,1,5,5,0,0,0,2.15.4,6.27,6.27,0,0,0,.88-.07,6.34,6.34,0,0,1,.78-.08.41.41,0,0,1,.42.38,3.47,3.47,0,0,1,.08.68,1.46,1.46,0,0,1-.45,1.15,6,6,0,0,1-1.53.75,5.31,5.31,0,0,1-1.73.35,6.17,6.17,0,0,1-2.68-.55,6.94,6.94,0,0,1-2-1.43,6.33,6.33,0,0,1-1.31-1.91,4.77,4.77,0,0,1-.45-1.92,8.17,8.17,0,0,1,.13-1.31c.08-.53.16-1.23.25-2.1s.17-1.94.25-3.21.12-2.79.12-4.56c0-1.51,0-3-.05-4.41s-.13-2.91-.3-4.41h-5.71a7.44,7.44,0,0,0-.93.05"/><path class="cls-4" d="M294.43,440.2a1,1,0,0,1-.27.48,7.23,7.23,0,0,1-.68.67,6.3,6.3,0,0,1-.78.6,1.22,1.22,0,0,1-.63.26c-1.5.13-2.89.2-4.18.22s-2.43,0-3.43.08q0,6,2.35,9c1.58,2,4.08,3,7.52,3a3.51,3.51,0,0,1,1.48.2.87.87,0,0,1,.38.85c0,.27-.25.53-.75.8a6.17,6.17,0,0,1-2.66.4,16.29,16.29,0,0,1-4.86-.63,10.36,10.36,0,0,1-3.36-1.67,8.32,8.32,0,0,1-2.13-2.44,12,12,0,0,1-1.18-2.9,16.32,16.32,0,0,1-.5-3.09c-.07-1-.1-2-.1-2.95a32.75,32.75,0,0,1,.92-8.4A16.89,16.89,0,0,1,284,429.3a8.66,8.66,0,0,1,3.48-3,10.05,10.05,0,0,1,4.09-.87,8.21,8.21,0,0,1,2.85.32,1.18,1.18,0,0,1,.75,1.18c0,.73-.31,1.1-.95,1.1h-3a5.76,5.76,0,0,0-2.34.5,5.07,5.07,0,0,0-2.05,1.88,12.7,12.7,0,0,0-1.58,3.79,30.33,30.33,0,0,0-.85,6.16,3.54,3.54,0,0,1,1-.58,3.44,3.44,0,0,1,1.3-.22h6.77c.63,0,.95.2.95.6"/><path class="cls-4" d="M301.12,452.81a.68.68,0,0,1,.48-.23,3.76,3.76,0,0,1,1.65.48,5.23,5.23,0,0,0,2.36.47,2.8,2.8,0,0,0,2.18-.92,3,3,0,0,0,.83-2,7.21,7.21,0,0,0-.48-2.36c-.32-.9-.71-1.86-1.18-2.88s-1-2.07-1.53-3.16S304.37,440,303.9,439s-.85-2-1.17-2.88a7.1,7.1,0,0,1-.48-2.31,6.94,6.94,0,0,1,.68-2.43,17.74,17.74,0,0,1,1.8-3.18,13.3,13.3,0,0,1,2.61-2.78,4.85,4.85,0,0,1,3.08-1.18c.23,0,.58,0,1,.08a8.65,8.65,0,0,1,1.33.25,5,5,0,0,1,1.15.45.8.8,0,0,1,.5.67,1.68,1.68,0,0,1-.37,1.31,3.52,3.52,0,0,1-1.78.35c-2.21.07-3.8.57-4.77,1.53a4.74,4.74,0,0,0-1.45,3.53,8.66,8.66,0,0,0,.85,3.28c.57,1.33,1.2,2.74,1.88,4.27s1.31,3.09,1.88,4.71a13.92,13.92,0,0,1,.85,4.63,10.52,10.52,0,0,1-.25,1.66,9.92,9.92,0,0,1-.92,2.58,8.83,8.83,0,0,1-1.81,2.38,4.13,4.13,0,0,1-2.93,1.05,5.66,5.66,0,0,1-1.15-.15,9.47,9.47,0,0,1-1.38-.4,9.13,9.13,0,0,1-1.2-.53,1.24,1.24,0,0,1-.63-.52,8.45,8.45,0,0,1-.25-.88,3.84,3.84,0,0,1-.1-.93,1.07,1.07,0,0,1,.22-.77"/><path class="cls-4" d="M325.68,445.09a3.78,3.78,0,0,0-1.15.17,1.46,1.46,0,0,0-.68.48,3.66,3.66,0,0,0-.45.93,14.59,14.59,0,0,1-.77,1.8c-.36.7-.7,1.4-1.06,2.11s-.67,1.34-.95,1.93a7.23,7.23,0,0,0-.53,1.32,2.69,2.69,0,0,1-.37,1.13.92.92,0,0,1-.58.33l-1.18.12c-.45,0-.89.1-1.32.13s-.82.06-1.16.07l-.6,0a.41.41,0,0,1-.38-.28,1.3,1.3,0,0,1-.12-.52,2.31,2.31,0,0,1,.12-.93.8.8,0,0,1,.48-.33,5,5,0,0,0,1.53-.72,3.8,3.8,0,0,0,1.28-1.88,14.13,14.13,0,0,1,.87-1.78l1.89-3.46,2.38-4.41q1.27-2.38,2.35-4.66c.72-1.52,1.31-2.94,1.78-4.24a9.76,9.76,0,0,0,.7-3.11,1.23,1.23,0,0,0-.1-.42c-.06-.19-.14-.39-.22-.63s-.16-.44-.23-.63a1.53,1.53,0,0,1-.1-.42.8.8,0,0,1,.33-.55,4.42,4.42,0,0,1,.77-.58,6.39,6.39,0,0,1,.91-.45,2,2,0,0,1,.7-.18q.3,0,.93.63a5.41,5.41,0,0,1,1,1.48c1.14,2.4,2.34,5,3.61,7.72s2.86,5.78,4.76,9.12q1.82,3.16,3,5c.82,1.24,1.48,2.18,2,2.83s.86,1.1,1.07,1.33.33.4.33.5a.73.73,0,0,1-.38.73,1.77,1.77,0,0,1-.77.18c-.2,0-.49,0-.86-.05l-1.15-.15-1.13-.2a5.38,5.38,0,0,1-.77-.2,1.23,1.23,0,0,1-.76-.63,6.07,6.07,0,0,1-.5-1.18c-.1-.3-.3-.81-.62-1.53s-.66-1.44-1-2.18-.72-1.39-1-2-.59-.91-.76-1a6.53,6.53,0,0,0-1.7-.42c-.8-.12-1.67-.21-2.6-.28s-1.86-.11-2.76-.12l-2.11,0c-.8,0-1.44,0-1.93,0m5.84-10.1a9.6,9.6,0,0,1-.77-1.78c-.12-.42-.3-.63-.53-.63s-.19.08-.28.23a4,4,0,0,0-.25.57c-.08.24-.16.47-.22.71a4.18,4.18,0,0,1-.25.65l-2.61,5.31c-.37.77-.63,1.31-.8,1.63a1.73,1.73,0,0,0-.25.73c0,.23.28.35.85.35h9.07Z"/><path class="cls-4" d="M353.25,436.22a10,10,0,0,0-2.08-3.19c-.84-.9-1.5-1.63-2-2.18s-.88-1-1.15-1.35a5,5,0,0,1-.52-.8,1.21,1.21,0,0,1-.13-.53,1.49,1.49,0,0,1,.65-1,2.4,2.4,0,0,1,1.61-.55.77.77,0,0,1,.32.07,3.47,3.47,0,0,1,.65.45c.32.25.76.64,1.33,1.16s1.34,1.24,2.31,2.18q4,3.86,7.29,6.76t6.54,5.27q3.21,2.36,6.49,4.33t7.15,4c.06-.74.12-1.39.17-2s.09-1.1.12-1.6.06-1,.08-1.53,0-1.08,0-1.68q0-3.31-.11-6.06c-.06-1.84-.13-3.71-.19-5.62a5.23,5.23,0,0,0-.3-1.6,6.24,6.24,0,0,0-.53-1l-.5-.7a1.13,1.13,0,0,1-.23-.7.92.92,0,0,1,.4-.75,3.32,3.32,0,0,1,1-.48,11.06,11.06,0,0,1,1.2-.27,6.65,6.65,0,0,1,1.08-.1,3.77,3.77,0,0,1,1.1.17.78.78,0,0,1,.55.83,6.81,6.81,0,0,1-.12,1.1c-.08.47-.18,1.3-.3,2.48s-.22,2.88-.3,5.07-.13,5.15-.13,8.89c0,1.14,0,2.13.08,3s.11,1.61.2,2.26.15,1.23.2,1.73.08,1,.08,1.45a1.81,1.81,0,0,1-.41,1.16,3.42,3.42,0,0,1-.92.82,4,4,0,0,1-1.08.48,3.62,3.62,0,0,1-.9.15c-.2,0-.38-.14-.53-.43s-.33-.61-.53-1-.44-.79-.72-1.23a3.68,3.68,0,0,0-1.18-1.1c-2.67-1.54-5-2.88-7-4s-3.67-2.18-5.11-3.06-2.66-1.66-3.66-2.33-1.88-1.29-2.63-1.86-1.43-1.11-2-1.63-1.21-1.06-1.81-1.62q-.15,1.09-.27,3c-.08,1.27-.18,2.65-.28,4.14s-.22,3-.37,4.48-.35,2.86-.58,4.06a3.41,3.41,0,0,1-.8,1.71,1.66,1.66,0,0,1-1.16.55,2.38,2.38,0,0,1-.62-.1,2.74,2.74,0,0,1-.7-.3,2.5,2.5,0,0,1-.55-.45.82.82,0,0,1-.23-.55,4.37,4.37,0,0,1,.43-1.53,26.52,26.52,0,0,0,.9-2.76,42.74,42.74,0,0,0,.9-4.21,34.25,34.25,0,0,0,.43-5.84,11.22,11.22,0,0,0-.63-4"/><path class="cls-4" d="M400.52,445.09a3.85,3.85,0,0,0-1.16.17,1.43,1.43,0,0,0-.67.48,3.1,3.1,0,0,0-.45.93,14.85,14.85,0,0,1-.78,1.8l-1,2.11-1,1.93a6.38,6.38,0,0,0-.52,1.32,2.66,2.66,0,0,1-.38,1.13.93.93,0,0,1-.57.33l-1.18.12c-.45,0-.9.1-1.33.13s-.82.06-1.15.07l-.61,0a.39.39,0,0,1-.37-.28,1.17,1.17,0,0,1-.13-.52,2.1,2.1,0,0,1,.13-.93.74.74,0,0,1,.48-.33,4.87,4.87,0,0,0,1.52-.72,3.74,3.74,0,0,0,1.28-1.88,13.35,13.35,0,0,1,.88-1.78c.52-1,1.14-2.11,1.88-3.46s1.53-2.82,2.38-4.41,1.64-3.14,2.36-4.66,1.31-2.94,1.78-4.24a10,10,0,0,0,.7-3.11,1.53,1.53,0,0,0-.1-.42c-.07-.19-.15-.39-.23-.63s-.16-.44-.22-.63a1.3,1.3,0,0,1-.11-.42.8.8,0,0,1,.33-.55,4.94,4.94,0,0,1,.78-.58,6.3,6.3,0,0,1,.9-.45,2,2,0,0,1,.7-.18q.3,0,.93.63a5.23,5.23,0,0,1,1,1.48c1.13,2.4,2.34,5,3.6,7.72s2.86,5.78,4.77,9.12q1.8,3.16,3,5c.82,1.24,1.48,2.18,2,2.83s.86,1.1,1.08,1.33.32.4.32.5a.72.72,0,0,1-.37.73,1.81,1.81,0,0,1-.78.18c-.2,0-.48,0-.85-.05l-1.15-.15-1.13-.2a6,6,0,0,1-.78-.2,1.19,1.19,0,0,1-.75-.63,5.51,5.51,0,0,1-.5-1.18q-.15-.45-.63-1.53c-.32-.72-.66-1.44-1-2.18s-.72-1.39-1.05-2-.58-.91-.75-1a6.64,6.64,0,0,0-1.7-.42c-.81-.12-1.68-.21-2.61-.28s-1.86-.11-2.76-.12l-2.1,0c-.81,0-1.45,0-1.93,0m5.84-10.1a10.57,10.57,0,0,1-.78-1.78c-.12-.42-.29-.63-.53-.63s-.19.08-.27.23a3.11,3.11,0,0,0-.25.57c-.09.24-.16.47-.23.71a4.18,4.18,0,0,1-.25.65l-2.61,5.31c-.36.77-.63,1.31-.8,1.63a1.73,1.73,0,0,0-.25.73c0,.23.29.35.85.35h9.08Z"/><path class="cls-4" d="M441.84,451.8a2.53,2.53,0,0,1,1.26-.42c.56,0,.85.21.85.65a4.41,4.41,0,0,1-.13.73,9.3,9.3,0,0,1-.35,1.2,9.46,9.46,0,0,1-.5,1.15c-.18.35-.38.53-.58.53a2.39,2.39,0,0,1-.82-.13l-1.13-.37a1,1,0,0,0-.35-.08l-.85-.05-1.63-.05-2.63,0-2.73,0-1.64.05a4.51,4.51,0,0,0-.87.1,2.41,2.41,0,0,0-.48.18,3.25,3.25,0,0,1-1.55.35.93.93,0,0,1-.63-.35,6.07,6.07,0,0,1-.62-.78,4.06,4.06,0,0,1-.48-.85,1.89,1.89,0,0,1-.18-.58,1.48,1.48,0,0,1,.51-.93,2.06,2.06,0,0,0,.5-1.47c0-.54.05-1.19.07-2s0-1.67,0-2.71V439a52.46,52.46,0,0,0-.26-5.84,33.5,33.5,0,0,0-.52-3.41,7.65,7.65,0,0,0-.53-1.7,1.77,1.77,0,0,1-.25-.78q0-.25.48-.75a8.89,8.89,0,0,1,1.1-1,11.27,11.27,0,0,1,1.25-.83,2.33,2.33,0,0,1,.88-.35,2.53,2.53,0,0,1,1.1.33,1,1,0,0,1,.65.87,3.68,3.68,0,0,1-.2,1.11,4.64,4.64,0,0,0-.2,1.35c0,1.5,0,3-.15,4.46s-.15,2.91-.15,4.31c0,.94,0,1.82.05,2.63s0,1.78,0,2.88,0,2.1-.1,3.19-.13,2.1-.2,3-.13,1.75-.2,2.46-.1,1.2-.1,1.5.2.4.6.4a1.46,1.46,0,0,0,.53-.1,1.74,1.74,0,0,1,.63-.1l9.07-.35a3,3,0,0,0,1.4-.48"/><path class="cls-5" d="M93.49,426.33a4,4,0,0,1,.38-.26l.52-.29a4.73,4.73,0,0,1,.53-.23,1.29,1.29,0,0,1,.39-.09c.34,0,.52.48.52,1.44,0,.54,0,1.22-.07,2s-.07,1.7-.07,2.62a16.08,16.08,0,0,0,.46,3.39c.31,1.39.72,2.85,1.22,4.41s1.1,3.11,1.77,4.68a36.77,36.77,0,0,0,2.1,4.26,16.94,16.94,0,0,0,2.21,3.08,3.06,3.06,0,0,0,2.11,1.17,3.22,3.22,0,0,0,2.5-1.32,13.18,13.18,0,0,0,2-3.39,31.86,31.86,0,0,0,1.49-4.6c.42-1.69.75-3.35,1-5s.45-3.13.58-4.51.19-2.44.19-3.17c0-1.26,0-2.25.08-3s.24-1.06.57-1.06.66.38,1.44,1.15a2,2,0,0,1,.35.57,2.93,2.93,0,0,1,.11.92c0,.23-.1,1.08-.31,2.53s-.53,3.21-1,5.24-1,4.2-1.58,6.5a47.15,47.15,0,0,1-2.18,6.35,20.62,20.62,0,0,1-2.79,4.83,4.38,4.38,0,0,1-3.42,1.93c-.72,0-1.51-.55-2.37-1.64a25.07,25.07,0,0,1-2.59-4.23,61.38,61.38,0,0,1-2.54-5.81q-1.23-3.21-2.18-6.41t-1.52-6a23.61,23.61,0,0,1-.57-4.51,2.28,2.28,0,0,1,.62-1.67"/><path class="cls-4" d="M75.41,453.25a.67.67,0,0,1,.48-.22,3.91,3.91,0,0,1,1.69.47A5.49,5.49,0,0,0,80,454a2.87,2.87,0,0,0,2.22-.92,2.91,2.91,0,0,0,.84-2,7.16,7.16,0,0,0-.48-2.34c-.33-.89-.73-1.85-1.21-2.86s-1-2-1.55-3.13-1.08-2.12-1.56-3.13-.88-2-1.2-2.86a7,7,0,0,1-.48-2.29,6.56,6.56,0,0,1,.69-2.41,17.49,17.49,0,0,1,1.83-3.16,13.41,13.41,0,0,1,2.66-2.76,5,5,0,0,1,3.14-1.17,8.36,8.36,0,0,1,1,.08,9,9,0,0,1,1.36.24,5.71,5.71,0,0,1,1.17.45.79.79,0,0,1,.51.67,1.65,1.65,0,0,1-.38,1.3,3.64,3.64,0,0,1-1.81.34c-2.25.07-3.87.57-4.85,1.52A4.65,4.65,0,0,0,80.44,433a8.58,8.58,0,0,0,.86,3.25q.87,2,1.92,4.23c.7,1.51,1.33,3.07,1.91,4.68a13.5,13.5,0,0,1,.87,4.59A10.75,10.75,0,0,1,84.8,454,8.62,8.62,0,0,1,83,456.36a4.28,4.28,0,0,1-3,1,6,6,0,0,1-1.18-.15,11.65,11.65,0,0,1-1.4-.39,12.24,12.24,0,0,1-1.23-.53,1.32,1.32,0,0,1-.64-.52c-.1-.3-.18-.59-.25-.87a3.82,3.82,0,0,1-.1-.92,1,1,0,0,1,.23-.77"/><rect class="cls-3" x="232.34" y="470.18" width="1.88" height="18.95"/><path class="cls-3" d="M252.72,475.46v13.67h-1.86v-2.35a7.91,7.91,0,0,1-2.65,2,7.54,7.54,0,0,1-3.23.68,7.38,7.38,0,0,1-5.3-2.1,6.82,6.82,0,0,1-2.2-5.12,6.72,6.72,0,0,1,2.22-5.06,7.49,7.49,0,0,1,5.34-2.1,7,7,0,0,1,5.82,2.87v-2.51Zm-7.53,1.34a6,6,0,0,0-2.9.72,5.51,5.51,0,0,0-2.12,2,5.3,5.3,0,0,0-.78,2.76,5.24,5.24,0,0,0,.79,2.76,5.62,5.62,0,0,0,2.13,2.06,5.86,5.86,0,0,0,2.87.73,6.18,6.18,0,0,0,2.93-.73,5.28,5.28,0,0,0,2.13-2,5.4,5.4,0,0,0,.74-2.8,5.26,5.26,0,0,0-1.67-4,5.75,5.75,0,0,0-4.12-1.59"/><path class="cls-3" d="M264.57,475.46h1.88v2.36a7,7,0,0,1,2-1.91,6,6,0,0,1,3-.81,5.3,5.3,0,0,1,2,.39,4.31,4.31,0,0,1,1.56,1,5.27,5.27,0,0,1,1.05,1.85,6.73,6.73,0,0,1,2.35-2.44,5.82,5.82,0,0,1,3-.84,5,5,0,0,1,2.68.72,4.31,4.31,0,0,1,1.72,2,9.9,9.9,0,0,1,.57,3.84v7.47h-1.93v-7.47a9.3,9.3,0,0,0-.33-3,2.79,2.79,0,0,0-1.15-1.33,3.62,3.62,0,0,0-1.93-.5,4.52,4.52,0,0,0-4.16,2.77,12,12,0,0,0-.52,4.2v5.35h-1.89v-7a11.23,11.23,0,0,0-.33-3.36,2.79,2.79,0,0,0-1.14-1.42,3.48,3.48,0,0,0-1.95-.54,4.45,4.45,0,0,0-2.45.74,4.5,4.5,0,0,0-1.68,2,10.12,10.12,0,0,0-.54,3.81v5.79h-1.88Z"/><path class="cls-3" d="M305,475.46v13.67h-1.85v-2.35a7.94,7.94,0,0,1-2.66,2,7.83,7.83,0,0,1-8.53-1.42,6.85,6.85,0,0,1-2.2-5.12A6.69,6.69,0,0,1,292,477.2a7.45,7.45,0,0,1,5.33-2.1,7,7,0,0,1,5.83,2.87v-2.51Zm-7.52,1.34a6,6,0,0,0-2.9.72,5.44,5.44,0,0,0-2.12,2,5.31,5.31,0,0,0-.79,2.76,5.25,5.25,0,0,0,.8,2.76,5.62,5.62,0,0,0,2.13,2.06,5.82,5.82,0,0,0,2.86.73,6.15,6.15,0,0,0,2.93-.73,5.21,5.21,0,0,0,2.13-2,5.57,5.57,0,0,0-.92-6.77,5.76,5.76,0,0,0-4.12-1.59"/><path class="cls-3" d="M308.52,475.46h1.92v2a6.53,6.53,0,0,1,1.82-1.76,3.75,3.75,0,0,1,2-.59,3.62,3.62,0,0,1,1.66.47l-1,1.48a2.71,2.71,0,0,0-1-.24,2.83,2.83,0,0,0-1.82.72,4.52,4.52,0,0,0-1.33,2.25,19.7,19.7,0,0,0-.35,4.72v4.63h-1.92Z"/><path class="cls-3" d="M325.13,475.46H327v2.36a7,7,0,0,1,2-1.91,6,6,0,0,1,3-.81,5.3,5.3,0,0,1,2,.39,4.31,4.31,0,0,1,1.56,1,5.42,5.42,0,0,1,1.05,1.85,6.73,6.73,0,0,1,2.35-2.44,5.82,5.82,0,0,1,3-.84,5,5,0,0,1,2.68.72,4.31,4.31,0,0,1,1.72,2,9.93,9.93,0,0,1,.56,3.84v7.47h-1.92v-7.47a9.3,9.3,0,0,0-.33-3,2.84,2.84,0,0,0-1.15-1.33,3.62,3.62,0,0,0-1.93-.5,4.5,4.5,0,0,0-4.16,2.77,12,12,0,0,0-.52,4.2v5.35H335.1v-7a10.89,10.89,0,0,0-.33-3.36,2.81,2.81,0,0,0-1.15-1.42,3.42,3.42,0,0,0-1.94-.54,4.43,4.43,0,0,0-2.45.74,4.5,4.5,0,0,0-1.68,2,10.12,10.12,0,0,0-.54,3.81v5.79h-1.88Z"/><path class="cls-3" d="M365.55,475.46v13.67H363.7v-2.35a7.94,7.94,0,0,1-2.66,2,7.83,7.83,0,0,1-8.53-1.42,6.85,6.85,0,0,1-2.2-5.12,6.72,6.72,0,0,1,2.22-5.06,7.49,7.49,0,0,1,5.34-2.1A7,7,0,0,1,363.7,478v-2.51ZM358,476.8a6,6,0,0,0-2.9.72,5.44,5.44,0,0,0-2.12,2,5.31,5.31,0,0,0-.79,2.76,5.25,5.25,0,0,0,.8,2.76,5.55,5.55,0,0,0,2.13,2.06,5.82,5.82,0,0,0,2.86.73,6.15,6.15,0,0,0,2.93-.73,5.21,5.21,0,0,0,2.13-2,5.57,5.57,0,0,0-.92-6.77A5.76,5.76,0,0,0,358,476.8"/><path class="cls-3" d="M369.79,475.46h1.88v2.45a7.79,7.79,0,0,1,2.5-2.11,6.58,6.58,0,0,1,3-.7,5.46,5.46,0,0,1,2.91.78A4.77,4.77,0,0,1,382,478a10.52,10.52,0,0,1,.6,4.11v7h-1.88v-6.52a15.05,15.05,0,0,0-.21-3.16,3.45,3.45,0,0,0-1.26-2,3.92,3.92,0,0,0-2.42-.68,4.85,4.85,0,0,0-3.06,1,5,5,0,0,0-1.78,2.61,17,17,0,0,0-.27,3.73v5h-1.88Z"/><path class="cls-3" d="M401.19,470.18v18.95h-1.85v-2.35a7.94,7.94,0,0,1-2.66,2,7.83,7.83,0,0,1-8.53-1.42,6.85,6.85,0,0,1-2.2-5.12,6.72,6.72,0,0,1,2.22-5.06,7.49,7.49,0,0,1,5.34-2.1,7,7,0,0,1,5.83,2.87v-7.79Zm-7.52,6.62a6,6,0,0,0-2.91.72,5.48,5.48,0,0,0-2.11,2,5.22,5.22,0,0,0-.79,2.76,5.33,5.33,0,0,0,.79,2.76,5.57,5.57,0,0,0,2.14,2.06,5.82,5.82,0,0,0,2.86.73,6.15,6.15,0,0,0,2.93-.73,5.45,5.45,0,0,0,1.2-8.74,5.72,5.72,0,0,0-4.11-1.59"/><path class="cls-3" d="M420,475.46v13.67h-1.85v-2.35a7.94,7.94,0,0,1-2.66,2,7.83,7.83,0,0,1-8.53-1.42,6.85,6.85,0,0,1-2.19-5.12A6.71,6.71,0,0,1,407,477.2a7.49,7.49,0,0,1,5.34-2.1,7,7,0,0,1,5.83,2.87v-2.51Zm-7.52,1.34a6,6,0,0,0-2.9.72,5.44,5.44,0,0,0-2.12,2,5.31,5.31,0,0,0-.79,2.76,5.25,5.25,0,0,0,.8,2.76,5.62,5.62,0,0,0,2.13,2.06,5.82,5.82,0,0,0,2.86.73,6.15,6.15,0,0,0,2.93-.73,5.21,5.21,0,0,0,2.13-2,5.57,5.57,0,0,0-.92-6.77,5.76,5.76,0,0,0-4.12-1.59"/><rect class="cls-4" x="75.34" y="480.09" width="148.48" height="3.08"/><rect class="cls-4" x="425.87" y="480.09" width="18.89" height="3.08"/></g></g></svg>